<?xml version="1.0" standalone="no"?>
<!DOCTYPE svg PUBLIC "-//W3C//DTD SVG 1.1//EN" "http://www.w3.org/Graphics/SVG/1.1/DTD/svg11.dtd" >
<svg xmlns="http://www.w3.org/2000/svg" xmlns:xlink="http://www.w3.org/1999/xlink" version="1.1">
<metadata>
Created by FontForge 20200511 at Fri Oct 11 20:12:09 2019
 By convertio
Copyright (C) 2019 by original authors @ fontello.com
</metadata>
<defs>
<font id="fontello" horiz-adv-x="1000" >
  <font-face 
    font-family="fontello"
    font-weight="400"
    font-stretch="normal"
    units-per-em="1000"
    panose-1="2 0 5 3 0 0 0 0 0 0"
    ascent="850"
    descent="-150"
    bbox="-4 -159 1286.04 870"
    underline-thickness="0"
    underline-position="10"
    unicode-range="U+E800-F1F5"
  />
<missing-glyph 
 />
    <glyph glyph-name=".notdef" 
 />
    <glyph glyph-name="arrow-left-down" unicode="&#xe800;" 
d="M156 350q-13 0 -22 -9t-9 -22v-313v0q0 -4 2 -12l2 -3q3 -5 5 -7v0v0q2 -2 7 -5l3 -2q8 -2 12 -2h313q13 0 22 9t9 22t-9 22.5t-22 9.5h-237l634 634q9 9 9 22t-9 22t-22 9t-22 -9l-634 -634v237q0 13 -9.5 22t-22.5 9z" />
    <glyph glyph-name="arrow-up" unicode="&#xe801;" 
d="M531 -25q13 0 22.5 9t9.5 22v612l134 -134q9 -9 22 -9t22 9t9 22t-9 22l-188 188q-4 4 -10 7q-11 5 -24 0l-3 -2q-5 -3 -7 -5v0l-187 -188q-10 -9 -10 -22t9.5 -22t22.5 -9t22 9l134 134v-612q0 -13 9 -22t22 -9z" />
    <glyph glyph-name="clipboard" unicode="&#xe802;" 
d="M813 788h-188q0 26 -18 44t-44 18h-125q-26 0 -44.5 -18t-18.5 -44h-187q-26 0 -44.5 -18.5t-18.5 -44.5v-813q0 -26 18.5 -44t44.5 -18h625q26 0 44 18.5t18 43.5v813q0 26 -18 44.5t-44 18.5zM813 -25h-625v750h125q0 -25 18.5 -43.5t43.5 -18.5h250q26 0 44.5 18
t18.5 44h125v-750zM250 506q0 -13 9 -22t22 -9h438q13 0 22 9t9 22t-9 22.5t-22 9.5h-438q-13 0 -22 -9.5t-9 -22.5zM719 350h-438q-13 0 -22 -9t-9 -22t9 -22t22 -9h438q13 0 22 9t9 22t-9 22t-22 9zM719 163h-438q-13 0 -22 -9.5t-9 -22.5t9 -22t22 -9h438q13 0 22 9t9 22
t-9 22.5t-22 9.5z" />
    <glyph glyph-name="arrow-down" unicode="&#xe803;" 
d="M531 725q-13 0 -22 -9t-9 -22v-612l-134 134q-9 9 -22 9t-22 -9t-9 -22t9 -22l187 -188v0q2 -2 7 -5l3 -2q13 -5 24 0q6 3 10 7l188 188q9 9 9 22t-9 22t-22 9t-22 -9l-134 -134v612q0 13 -9.5 22t-22.5 9z" />
    <glyph glyph-name="arrow-left" unicode="&#xe804;" 
d="M125 381q0 -4 2 -12l1 -2q4 -5 6 -7v-1l188 -187q9 -10 22 -10t22 9.5t9 22.5t-9 22l-134 134h612q13 0 22 9t9 22t-9 22.5t-22 9.5h-612l134 134q9 9 9 22t-9 22t-22 9t-22 -9l-188 -188v0q-4 -4 -7 -10q-2 -8 -2 -12v0v0z" />
    <glyph glyph-name="arrow-right" unicode="&#xe805;" 
d="M125 381q0 -13 9 -22t22 -9h612l-134 -134q-9 -9 -9 -22t9 -22t22 -9t22 9l188 187q2 2 5 7l2 3q2 8 2 12v0v0q0 4 -2 12q-3 6 -7 10l-188 188q-9 9 -22 9t-22 -9t-9 -22t9 -22l134 -134h-612q-13 0 -22 -9.5t-9 -22.5z" />
    <glyph glyph-name="arrow-left-up" unicode="&#xe806;" 
d="M125 381q0 -13 9 -22t22 -9t22.5 9t9.5 22v237l634 -634q9 -9 22 -9t22 9t9 22t-9 22l-634 635h237q13 0 22 9t9 22t-9 22t-22 9h-313q-4 0 -12 -2l-3 -2q-5 -3 -7 -5v0v0q-2 -2 -5 -7l-2 -3q-2 -8 -2 -12v-313z" />
    <glyph glyph-name="arrow-right-up" unicode="&#xe807;" 
d="M134 -16q9 -9 22 -9t22 9l635 634v-237q0 -13 9 -22t22 -9t22 9t9 22v313q0 4 -2 12q-6 11 -17 17q-8 2 -12 2h-313q-13 0 -22 -9t-9 -22t9 -22t22 -9h237l-634 -635q-9 -9 -9 -22t9 -22z" />
    <glyph glyph-name="arrow-right-down" unicode="&#xe808;" 
d="M844 350q-13 0 -22 -9t-9 -22v-237l-635 634q-9 9 -22 9t-22 -9t-9 -22t9 -22l634 -634h-237q-13 0 -22 -9.5t-9 -22.5t9 -22t22 -9h313q4 0 12 2q11 6 17 17q2 8 2 12v0v313q0 13 -9 22t-22 9z" />
    <glyph glyph-name="arrow-up-down" unicode="&#xe809;" 
d="M634 672q9 -10 22 -10t22.5 9.5t9.5 22.5t-10 22l-125 125q-4 4 -10 7q-11 5 -24 0l-3 -2q-5 -3 -7 -5v0l-125 -125q-9 -9 -9 -22t9 -22t22 -9t22 9l72 71v-786l-72 71q-9 10 -22 10t-22 -9.5t-9 -22.5t9 -22l125 -125v0q2 -2 7 -5l3 -2q13 -5 24 0q6 3 10 7l125 125
q10 9 10 22t-9.5 22.5t-22.5 9.5t-22 -10l-71 -71v786z" />
    <glyph glyph-name="arrow-up-down-alt" unicode="&#xe80a;" 
d="M571 -141q9 -9 22.5 -9t22.5 9l120 120q9 9 9 22t-9 22t-22 9.5t-22 -9.5l-67 -66v549q0 13 -9 22t-22 9t-22 -9t-9 -22v-550l-72 72q-10 9 -22.5 9t-22 -9t-9.5 -22t9 -22zM406 162q13 0 22.5 9t9.5 22v550l72 -72q9 -9 22 -9t22 9.5t9 22t-9 22.5l-125 125
q-9 9 -21.5 9t-23.5 -9l-120 -121q-9 -9 -9 -22t9 -22t22 -9t22 9l67 67v-550q0 -13 9 -22t22 -9z" />
    <glyph glyph-name="arrow-left-right-alt" unicode="&#xe80b;" 
d="M174 114q9 9 9 22t-9 22l-67 67h549q13 0 22.5 9t9.5 22.5t-9 22.5t-23 9h-549l71 71q9 9 9 22t-9 22.5t-22 9.5t-22 -10l-125 -125q-9 -9 -9 -22t9 -22l121 -120q9 -10 22 -10t22 10zM991 465l-120 121q-10 9 -22.5 9t-22.5 -9t-9.5 -22t9.5 -22l67 -68h-549
q-13 0 -22 -9t-9 -22t9 -22t22 -9h549l-71 -72q-9 -9 -9 -22t9 -22t22 -9t22 9l125 125q9 9 9 22t-9 22z" />
    <glyph glyph-name="arrow-left-right" unicode="&#xe80c;" 
d="M998 331q-3 6 -7 10l-125 125q-9 9 -22 9t-22.5 -9t-9.5 -22t10 -22l71 -72h-786l71 72q10 9 10 22t-9.5 22t-22.5 9t-22 -9l-125 -125v0q-2 -2 -5 -7l-2 -3q-2 -8 -2 -12v0v0q0 -4 2 -12q3 -6 7 -10v0l125 -125q9 -10 22 -10t22.5 9.5t9.5 22.5t-10 22l-71 72h786
l-71 -72q-9 -9 -9 -22t9 -22t22 -9t22 9l125 125q4 4 7 10q2 8 2 12v0v0q0 4 -2 12z" />
    <glyph glyph-name="arrow-expand-alt2" unicode="&#xe80d;" 
d="M125 381q0 -13 9 -22t22 -9t22.5 9t9.5 22v237l580 -580h-237q-13 0 -22 -9.5t-9 -22.5t9 -22t22 -9h313q4 0 12 2q11 6 17 17q2 8 2 12v0v313q0 13 -9 22t-22 9t-22 -9t-9 -22v-237l-581 581h237q13 0 22 9t9 22t-9 22t-22 9h-313q-4 0 -12 -2l-3 -2q-5 -3 -7 -5v0v0
q-2 -2 -5 -7l-2 -3q-2 -8 -2 -12v-313z" />
    <glyph glyph-name="arrow-expand-alt" unicode="&#xe80e;" 
d="M156 350q-13 0 -22 -9t-9 -22v-313v0q0 -4 2 -12l2 -3q3 -5 5 -7v0v0q2 -2 7 -5l3 -2q8 -2 12 -2h313q13 0 22 9t9 22t-9 22.5t-22 9.5h-237l581 580v-237q0 -13 9 -22t22 -9t22 9t9 22v313q0 4 -2 12q-6 11 -17 17q-8 2 -12 2h-313q-13 0 -22 -9t-9 -22t9 -22t22 -9h237
l-580 -581v237q0 13 -9.5 22t-22.5 9z" />
    <glyph glyph-name="arrow-condense" unicode="&#xe80f;" 
d="M928 778q-9 10 -22 10t-22 -10l-259 -259v175q0 13 -9 22t-22 9t-22 -9t-9 -22v-250v0q0 -8 1.5 -11.5t4.5 -8.5l2 -2h1v0q6 -6 10 -7.5t12 -1.5h250q13 0 22 9t9 22t-9 22t-22 9h-175l259 259q10 9 10 22t-10 22zM72 -78q9 -10 22 -10t22 10l259 259v-175q0 -13 9 -22
t22 -9t22.5 9t9.5 22v250q0 6 -3 12q-5 12 -17 17q-6 3 -12 3h-250q-13 0 -22 -9.5t-9 -22.5t9 -22t22 -9h175l-259 -259q-10 -9 -10 -22t10 -22z" />
    <glyph glyph-name="arrow-expand" unicode="&#xe810;" 
d="M935 768q-5 12 -17 17q-6 3 -12 3h-250q-13 0 -22 -9.5t-9 -22.5t9 -22t22 -9h175l-259 -259q-10 -9 -10 -22t9.5 -22t22.5 -9t22 9l259 259v-175q0 -13 9 -22t22 -9t22.5 9t9.5 22v250q0 6 -3 12zM94 225q-13 0 -22 -9t-9 -22v-250v0q0 -8 1.5 -11.5t4.5 -8.5l2 -2h1v-1
l2 -2q5 -3 8 -4q6 -3 12 -3h250q13 0 22 9.5t9 22.5t-9 22t-22 9h-175l259 259q10 9 10 22t-9.5 22.5t-22.5 9.5t-22 -10l-259 -259v175q0 13 -9 22t-22 9z" />
    <glyph glyph-name="arrow-move" unicode="&#xe811;" 
d="M998 331q-3 6 -7 10l-125 125q-9 9 -22 9t-22.5 -9t-9.5 -22t10 -22l71 -72h-330v331l71 -72q9 -9 22 -9t22.5 9t9.5 22t-10 22l-125 125v1l-2 2q-5 3 -8 4q-6 3 -12 3v0q-6 0 -11 -2t-10 -7h-1l-125 -126q-9 -9 -9 -22t9 -22t22 -9t22 9l72 72v-331h-331l72 72q9 9 9 22
t-9 22t-22 9t-22 -9l-125 -125h-1l-1 -2q-4 -6 -5.5 -9t-1.5 -11v0q0 -8 1.5 -11.5t4.5 -8.5l2 -2h1l125 -125q9 -10 22 -10t22 9.5t9 22.5t-9 22l-72 72h331v-331l-72 71q-9 10 -22 10t-22 -9.5t-9 -22.5t9 -22l125 -125q2 -2 7 -5l3 -2q8 -2 12 -2v0q4 0 12 2q6 3 10 7
l125 125q10 9 10 22t-9.5 22.5t-22.5 9.5t-22 -10l-71 -71v331h330l-71 -72q-9 -9 -9 -22t9 -22t22 -9t22 9l125 125q4 4 7 10q2 8 2 12v0q0 4 -2 12z" />
    <glyph glyph-name="caret-up" unicode="&#xe812;" 
d="M351 219l180 180l181 -180q9 -9 22 -9t22 9t9 22t-9 22l-203 203q-9 9 -22 9t-22 -9l-203 -203q-9 -9 -9 -22t9.5 -22t22 -9t22.5 9z" />
    <glyph glyph-name="caret-down" unicode="&#xe813;" 
d="M712 419l-181 -181l-180 181q-10 9 -22.5 9t-22 -9t-9.5 -22t9 -22l203 -203q9 -9 22 -9t22 9l203 203q9 9 9 22t-9 22t-22 9t-22 -9z" />
    <glyph glyph-name="caret-left" unicode="&#xe814;" 
d="M384 297l203 -203q9 -9 22 -9t22 9t9 22t-9 22l-180 181l180 180q9 10 9 22.5t-9 22t-22 9.5t-22 -9l-203 -203q-9 -9 -9 -22t9 -22z" />
    <glyph glyph-name="caret-right" unicode="&#xe815;" 
d="M431 94q9 -9 22 -9t22 9l203 203q9 9 9 22t-9 22l-203 203q-9 9 -22 9t-22 -9.5t-9 -22t9 -22.5l181 -180l-181 -181q-9 -9 -9 -22t9 -22z" />
    <glyph glyph-name="caret-2up" unicode="&#xe816;" 
d="M733 406l-209 185q-9 9 -22.5 9t-22.5 -9l-210 -185q-9 -9 -9 -22t9.5 -22.5t22.5 -9.5t22 9l187 166l187 -166q10 -9 23 -9t22 9.5t9 22.5t-9 22zM524 367q-9 9 -22.5 9t-22.5 -9l-210 -185q-9 -9 -9 -22t9.5 -22.5t22.5 -9.5t22 9l187 166l187 -166q10 -9 23 -9t22 9.5
t9 22.5t-9 22z" />
    <glyph glyph-name="caret-2down" unicode="&#xe817;" 
d="M686 339l-187 -166l-187 166q-10 9 -23 9t-22 -9.5t-9 -22.5t9 -22l209 -185q11 -9 23.5 -9t22.5 9l209 185q9 9 9 22t-9 23t-22.5 9.5t-22.5 -9.5zM731 563q-10 9 -23 9t-22 -9l-187 -166l-187 166q-10 9 -23 9t-22 -9t-9 -22t9 -23l209 -185q9 -9 22.5 -9t22.5 9
l210 185q9 10 9 22.5t-9 22.5z" />
    <glyph glyph-name="caret-2left" unicode="&#xe818;" 
d="M259 329l185 -210q9 -9 22 -9t23 9t9.5 22.5t-9.5 22.5l-166 187l166 187q9 10 9 23t-9 22t-22.5 9t-22.5 -9l-185 -209q-9 -9 -9 -22.5t9 -22.5zM713 583q-9 9 -22 9t-23 -9l-185 -209q-9 -9 -9 -22.5t9 -22.5l185 -210q10 -9 22.5 -9t22.5 9t9.5 22.5t-9.5 22.5
l-166 187l166 187q9 10 9 23t-9 22z" />
    <glyph glyph-name="caret-2right" unicode="&#xe819;" 
d="M741 372l-185 209q-9 9 -22 9t-23 -9t-9.5 -22.5t9.5 -22.5l166 -187l-166 -187q-9 -10 -9 -23t9 -22t22.5 -9t22.5 9l185 209q9 11 9 23.5t-9 22.5zM287 117q10 -9 22.5 -9t22.5 9l185 209q9 9 9 22.5t-9 22.5l-185 210q-9 9 -22 9t-23 -9t-9.5 -22.5t9.5 -22.5
l166 -187l-166 -187q-9 -10 -9 -23t9 -22z" />
    <glyph glyph-name="caret-up-alt2" unicode="&#xe81a;" 
d="M553 466q-9 9 -22 9t-22 -9l-203 -203q-9 -9 -9 -22t9.5 -22t22 -9t22.5 9l180 180l181 -180q9 -9 22 -9t22 9t9 22t-9 22zM533 783q-126 0 -235 -64q-105 -62 -167 -167q-64 -109 -64 -235t64 -235q62 -106 167 -168q109 -64 235 -64t235 64q106 62 168 167
q64 109 64 236t-64 235q-62 106 -167 168q-109 63 -236 63zM533 -88q-110 0 -204 55q-91 54 -145 146q-55 94 -55 204t55 204q54 91 145 145q94 55 204 55t204 -55q92 -54 146 -145q55 -94 55 -204t-55 -204q-54 -92 -146 -146q-94 -55 -204 -55z" />
    <glyph glyph-name="caret-down-alt2" unicode="&#xe81b;" 
d="M712 419l-181 -181l-180 181q-10 9 -22.5 9t-22 -9t-9.5 -22t9 -22l203 -203q9 -9 22 -9t22 9l203 203q9 9 9 22t-9 22t-22 9t-22 -9zM534 783q-127 0 -236 -64q-105 -62 -167 -167q-64 -109 -64 -235.5t64 -235.5q62 -105 167 -167q109 -64 235.5 -64t235.5 64
q105 62 167 167q64 109 64 235.5t-64 235.5q-62 105 -167 167q-109 64 -235 64zM534 -88q-110 0 -204 55q-91 54 -145 146q-55 94 -55 203.5t55 203.5q54 92 145 146q94 55 203.5 55t203.5 -55q92 -54 146 -146q55 -94 55 -203.5t-55 -203.5q-54 -92 -146 -146
q-94 -55 -203 -55z" />
    <glyph glyph-name="caret-left-alt2" unicode="&#xe81c;" 
d="M631 544q-9 9 -22 9t-22 -9l-203 -203q-9 -9 -9 -22t9 -22l203 -203q9 -9 22 -9t22 9t9 22t-9 22l-180 181l180 180q9 10 9 22.5t-9 22.5zM531 788q-127 0 -236 -64q-106 -62 -168 -168q-64 -110 -64 -237t64 -237q62 -106 168 -168q109 -64 236 -64t237 64
q106 62 168 168q64 110 64 237t-64 237q-62 106 -168 168q-110 64 -237 64zM531 -88q-110 0 -205 56q-92 54 -146 146q-55 95 -55 205t55 205q54 92 146 146q95 55 205 55t205 -55q92 -54 146 -146q56 -95 56 -205t-56 -205q-54 -92 -146 -146q-95 -56 -205 -56z" />
    <glyph glyph-name="caret-right-alt2" unicode="&#xe81d;" 
d="M678 341l-203 203q-9 9 -22 9t-22 -9.5t-9 -22t9 -22.5l181 -180l-181 -181q-9 -9 -9 -22t9 -22t22 -9t22 9l203 203q9 9 9 22t-9 22zM534 783q-127 0 -236 -64q-105 -62 -167 -167q-64 -109 -64 -235t64 -235q62 -106 167 -168q109 -64 236 -64t235 64q106 62 168 167
q63 109 63 236t-64 235q-61 106 -167 168q-109 63 -235 63zM534 -88q-110 0 -204 55q-91 54 -145 146q-55 94 -55 204t55 204q54 91 145 145q94 55 204 55t204 -55q91 -54 145 -146q55 -94 55 -203t-55 -204q-54 -91 -146 -145q-94 -56 -203 -56z" />
    <glyph glyph-name="caret-2up-alt2" unicode="&#xe81e;" 
d="M555 560q-9 9 -22.5 9t-22.5 -9l-209 -185q-10 -10 -10 -23t9.5 -22t22.5 -9t22 9l187 166l188 -166q9 -9 22 -9t22 9t9 22t-9 23zM555 335q-9 10 -22.5 10t-22.5 -10l-209 -184q-10 -10 -10 -23t9.5 -22t22.5 -9t22 9l187 166l188 -166q9 -9 22 -9t22 9t9 22t-9 23z
M534 783q-127 0 -236 -64q-105 -62 -167 -167q-64 -109 -64 -235t64 -235q62 -106 167 -168q109 -64 236 -64t235 64q106 62 168 167q63 109 63 236t-64 235q-61 106 -167 168q-109 63 -235 63zM534 -88q-110 0 -204 55q-91 54 -145 146q-55 94 -55 204t55 204
q54 91 145 145q94 55 204 55t204 -55q91 -54 145 -146q55 -94 55 -203t-55 -204q-54 -91 -146 -145q-94 -56 -203 -56z" />
    <glyph glyph-name="caret-2down-alt2" unicode="&#xe81f;" 
d="M717 307l-187 -165l-187 165q-9 10 -22 10t-22.5 -9.5t-9.5 -22.5t9 -22l210 -185q9 -9 22.5 -9t22.5 9l209 185q9 9 9 22t-9 22t-22 9.5t-23 -9.5zM717 532l-187 -166l-187 166q-9 9 -22 9t-22.5 -9.5t-9.5 -22.5t9 -22l209 -185q11 -9 24 -9t22 9l209 185q9 9 9 22
t-9 23t-22 9.5t-23 -9.5zM534 783q-127 0 -236 -64q-105 -62 -167 -167q-64 -109 -64 -235t64 -235q62 -106 167 -168q109 -64 236 -64t235 64q106 62 168 167q63 109 63 236t-64 235q-61 106 -167 168q-109 63 -235 63zM534 -88q-110 0 -204 55q-91 54 -145 146
q-55 94 -55 204t55 204q54 91 145 145q94 55 204 55t204 -55q91 -54 145 -146q55 -94 55 -203t-55 -204q-54 -91 -146 -145q-94 -56 -203 -56z" />
    <glyph glyph-name="caret-2left-alt2" unicode="&#xe820;" 
d="M354 320l166 187q9 9 9 22t-9 23t-22 9.5t-23 -9.5l-185 -209q-9 -10 -9 -22.5t9 -23.5l185 -209q10 -9 23 -9t22 9t9 22t-9 23zM744 552q-9 9 -22 9t-22 -9l-185 -209q-10 -10 -10 -23t10 -23l185 -209q9 -9 22 -9t22 9t9 22t-9 23l-166 187l166 187q9 9 9 22t-9 23z
M531 788q-127 0 -236 -64q-106 -62 -168 -168q-64 -110 -64 -237t64 -237q62 -106 168 -168q109 -64 236 -64t237 64q106 62 168 168q64 110 64 237t-64 237q-62 106 -168 168q-110 64 -237 64zM531 -88q-110 0 -205 56q-92 54 -146 146q-55 95 -55 205t55 205
q54 92 146 146q95 55 205 55t205 -55q92 -54 146 -146q56 -95 56 -205t-56 -205q-54 -92 -146 -146q-95 -56 -205 -56z" />
    <glyph glyph-name="caret-2right-alt2" unicode="&#xe821;" 
d="M772 340l-185 209q-9 10 -22 10t-22 -10t-9.5 -22.5t9.5 -21.5l165 -187l-165 -188q-10 -9 -10 -22t10 -22t22.5 -9t21.5 9l185 209q9 9 9 22.5t-9 22.5zM557 318q0 13 -9 22l-185 209q-9 10 -22 10t-22 -10t-9.5 -22.5t9.5 -21.5l165 -187l-165 -188q-10 -9 -10 -22
t10 -22t22.5 -9t21.5 9l185 209q9 9 9 23zM531 788q-127 0 -236 -64q-106 -62 -168 -168q-64 -110 -64 -237t64 -237q62 -106 168 -168q109 -64 236 -64t237 64q106 62 168 168q64 110 64 237t-64 237q-62 106 -168 168q-110 64 -237 64zM531 -88q-110 0 -205 56
q-92 54 -146 146q-55 95 -55 205t55 205q54 92 146 146q95 55 205 55t205 -55q92 -54 146 -146q56 -95 56 -205t-56 -205q-54 -92 -146 -146q-95 -56 -205 -56z" />
    <glyph glyph-name="triangle-up" unicode="&#xe822;" 
d="M281 225h437q14 0 22 11v0q9 10 9 24.5t-9 24.5l-218 242q-10 11 -22.5 11t-21.5 -11h-1l-218 -242q-10 -10 -10 -24.5t10 -24.5v0q9 -11 22 -11z" />
    <glyph glyph-name="triangle-down" unicode="&#xe823;" 
d="M521 235l1 1l218 242q9 10 9 24.5t-9 24.5v0q-11 11 -22 11h-437q-13 0 -22 -11v0q-10 -10 -10 -24.5t10 -24.5l218 -243q9 -10 22 -10t22 10z" />
    <glyph glyph-name="triangle-left" unicode="&#xe824;" 
d="M565 592l-242 -219q-10 -9 -10 -22t10 -22q0 -1 1 -1l241 -218q11 -9 25 -9t24 9v0q11 9 11 22v437q0 14 -11 22v0q-10 10 -24 10t-25 -9z" />
    <glyph glyph-name="triangle-right" unicode="&#xe825;" 
d="M434 109l239 219q11 9 11 22t-11 22v0q-1 0 -1 1l-238 219q-10 9 -24 9t-24 -9q0 -1 -1 -1q-10 -10 -10 -22v-438q0 -14 11 -22v0q10 -10 24 -10t24 10z" />
    <glyph glyph-name="triangle-up-alt2" unicode="&#xe826;" 
d="M531 788q-127 0 -236 -64q-106 -62 -168 -168q-64 -110 -64 -237t64 -237q62 -106 168 -168q109 -64 236 -64t237 64q106 62 168 168q64 110 64 237t-64 237q-62 106 -168 168q-110 64 -237 64zM531 -88q-110 0 -205 56q-92 54 -146 146q-55 95 -55 205t55 205
q54 92 146 146q95 55 205 55t205 -55q92 -54 146 -146q56 -95 56 -205t-56 -205q-54 -92 -146 -146q-95 -56 -205 -56zM550 465q-8 10 -19.5 10t-19.5 -10v-1l-191 -241q-8 -10 -8 -24.5t8 -25.5v0q8 -10 20 -10h382q11 0 19 11v-1q8 11 8 25.5t-8 24.5z" />
    <glyph glyph-name="triangle-down-alt2" unicode="&#xe827;" 
d="M531 788q-127 0 -236 -64q-106 -62 -168 -168q-64 -110 -64 -237t64 -237q62 -106 168 -168q109 -64 236 -64t237 64q106 62 168 168q64 110 64 237t-64 237q-62 106 -168 168q-110 64 -237 64zM531 -88q-110 0 -205 56q-92 54 -146 146q-55 95 -55 205t55 205
q54 92 146 146q95 55 205 55t205 -55q92 -54 146 -146q56 -95 56 -205t-56 -205q-54 -92 -146 -146q-95 -56 -205 -56zM742 402q-9 11 -20 11h-382q-10 0 -19 -11v0q-8 -10 -8 -24.5t8 -24.5l191 -243q8 -10 19.5 -10t18.5 10l192 243q8 10 8 24.5t-8 24.5v0z" />
    <glyph glyph-name="triangle-left-alt2" unicode="&#xe828;" 
d="M531 788q-127 0 -236 -64q-106 -62 -168 -168q-64 -110 -64 -237t64 -237q62 -106 168 -168q109 -64 236 -64t237 64q106 62 168 168q64 110 64 237t-64 237q-62 106 -168 168q-110 64 -237 64zM531 -88q-110 0 -205 56q-92 54 -146 146q-55 95 -55 205t55 205
q54 92 146 146q95 55 205 55t205 -55q92 -54 146 -146q56 -95 56 -205t-56 -205q-54 -92 -146 -146q-95 -56 -205 -56zM614 530q-10 8 -24 8t-25 -8l-242 -191q-10 -8 -10 -19.5t10 -19.5h1l241 -191q11 -8 25 -8t24 8v0q11 8 11 19v382q0 12 -11 20v0z" />
    <glyph glyph-name="triangle-right-alt2" unicode="&#xe829;" 
d="M531 788q-127 0 -236 -64q-106 -62 -168 -168q-64 -110 -64 -237t64 -237q62 -106 168 -168q109 -64 236 -64t237 64q106 62 168 168q64 110 64 237t-64 237q-62 106 -168 168q-110 64 -237 64zM531 -88q-110 0 -205 56q-92 54 -146 146q-55 95 -55 205t55 205
q54 92 146 146q95 55 205 55t205 -55q92 -54 146 -146q56 -95 56 -205t-56 -205q-54 -92 -146 -146q-95 -56 -205 -56zM739 339l-241 191q-10 8 -24.5 8t-25.5 -8v0q-10 -8 -10 -20v-382q0 -11 11 -19h-1q11 -8 25.5 -8t24.5 8l242 191q10 8 10 19.5t-10 19.5h-1z" />
    <glyph glyph-name="arrow-back" unicode="&#xe82a;" 
d="M134 359l188 -187q9 -10 22 -10t22 9.5t9 22.5t-9 22l-134 134h456q59 0 104 -34q40 -30 62 -82q21 -49 21 -103q0 -13 9 -22t22 -9t22.5 9t9.5 22q0 75 -23 134q-27 68 -79 106q-60 42 -148 42h-456l134 134q9 9 9 22t-9 22t-22 9t-22 -9l-188 -188q-9 -9 -9 -22t9 -22z
" />
    <glyph glyph-name="minus" unicode="&#xe82b;" 
d="M281 288h500q13 0 22.5 9t9.5 22t-9.5 22t-22.5 9h-500q-13 0 -22 -9t-9 -22t9 -22t22 -9z" />
    <glyph glyph-name="plus" unicode="&#xe82c;" 
d="M281 288h219v-219q0 -13 9 -22t22 -9t22.5 9t9.5 22v219h218q13 0 22.5 9t9.5 22t-9.5 22t-22.5 9h-218v219q0 13 -9.5 22t-22.5 9t-22 -9t-9 -22v-219h-219q-13 0 -22 -9t-9 -22t9 -22t22 -9z" />
    <glyph glyph-name="close" unicode="&#xe82d;" 
d="M314 102q9 -10 22 -10t22 10l173 173l173 -173q9 -10 22 -10t22.5 9.5t9.5 22.5t-10 22l-173 173l173 173q10 9 10 22t-9.5 22t-22.5 9t-22 -9l-173 -173l-173 173q-9 9 -22 9t-22 -9t-9 -22t9 -22l173 -173l-173 -173q-9 -9 -9 -22t9 -22z" />
    <glyph glyph-name="check" unicode="&#xe82e;" 
d="M431 50q2 -1 3 -3l13 -5q3 -1 8 -2t10 1q3 0 4 1q5 1 13 5l5 3q3 2 4 3.5t2 3.5t2 3v0l372 597q10 15 6.5 32.5t-18.5 27.5t-33 6.5t-28 -18.5l-344 -552l-190 185q-13 13 -31.5 12.5t-30.5 -14t-11.5 -32t13.5 -30.5l229 -223q1 0 2 -1z" />
    <glyph glyph-name="minus-alt2" unicode="&#xe82f;" 
d="M531 788q-127 0 -236 -64q-106 -62 -168 -168q-64 -110 -64 -237t64 -237q62 -106 168 -168q109 -64 236 -64t237 64q106 62 168 168q64 110 64 237t-64 237q-62 106 -168 168q-110 64 -237 64zM531 -88q-110 0 -205 56q-92 54 -146 146q-55 95 -55 205t55 205
q54 92 146 146q95 55 205 55t205 -55q92 -54 146 -146q56 -95 56 -205t-56 -205q-54 -92 -146 -146q-95 -56 -205 -56zM781 350h-500q-13 0 -22 -9t-9 -22t9 -22t22 -9h500q13 0 22.5 9t9.5 22t-9.5 22t-22.5 9z" />
    <glyph glyph-name="plus-alt2" unicode="&#xe830;" 
d="M531 788q-127 0 -236 -64q-106 -62 -168 -168q-64 -110 -64 -237t64 -237q62 -106 168 -168q109 -64 236 -64t237 64q106 62 168 168q64 110 64 237t-64 237q-62 106 -168 168q-110 64 -237 64zM531 -88q-110 0 -205 56q-92 54 -146 146q-55 95 -55 205t55 205
q54 92 146 146q95 55 205 55t205 -55q92 -54 146 -146q56 -95 56 -205t-56 -205q-54 -92 -146 -146q-95 -56 -205 -56zM781 350h-218v219q0 13 -9.5 22t-22.5 9t-22 -9t-9 -22v-219h-219q-13 0 -22 -9t-9 -22t9 -22t22 -9h219v-219q0 -13 9 -22t22 -9t22.5 9t9.5 22v219h218
q13 0 22.5 9t9.5 22t-9.5 22t-22.5 9z" />
    <glyph glyph-name="close-alt2" unicode="&#xe831;" 
d="M531 788q-127 0 -236 -64q-106 -62 -168 -168q-64 -110 -64 -237t64 -237q62 -106 168 -168q109 -64 236 -64t237 64q106 62 168 168q64 110 64 237t-64 237q-62 106 -168 168q-110 64 -237 64zM531 -88q-110 0 -205 56q-92 54 -146 146q-55 95 -55 205t55 205
q54 92 146 146q95 55 205 55t205 -55q92 -54 146 -146q56 -95 56 -205t-56 -205q-54 -92 -146 -146q-95 -56 -205 -56zM704 536l-172 -172l-154 172q-9 9 -22 9t-22 -9t-9 -22t9 -22l154 -172l-174 -174q-9 -9 -9 -22t9 -22.5t22 -9.5t22 10l172 171l154 -171q9 -10 22 -10
t22 10t9.5 22.5t-9.5 21.5l-154 172l174 174q10 9 10 22t-9.5 22t-22.5 9t-22 -9z" />
    <glyph glyph-name="check-alt2" unicode="&#xe832;" 
d="M503 850q-136 0 -252 -68q-113 -67 -180 -180q-68 -116 -68 -252t68 -252q67 -113 180 -180q116 -68 252 -68t252 68q113 67 180 180q68 116 68 252t-68 252q-67 113 -180 180q-116 68 -252 68zM503 -88q-119 0 -221 60q-99 58 -157 157q-60 102 -60 221t60 221
q58 99 157 157q102 60 221 60t221 -60q99 -58 156 -157q60 -102 60 -221t-60 -221q-58 -99 -157 -157q-102 -60 -220 -60zM722 549q-16 10 -33.5 6t-27.5 -19l-211 -322l-101 93q-13 13 -31 12t-31 -14t-12 -31.5t15 -30.5l139 -129q1 -1 2 -1l3 -3q1 -1 4 -2l9 -4l8 -1h10
q2 1 4 1q5 1 13 5q0 1 1 1l8 6l4 6v0l239 366q10 16 6.5 33.5t-18.5 27.5z" />
    <glyph glyph-name="zoom-out-alt" unicode="&#xe833;" 
d="M594 850q-111 0 -205 -55q-92 -54 -146 -146q-55 -95 -55 -205q0 -72 23.5 -137t66.5 -118l-265 -265q-13 -13 -13 -30.5t13 -30.5t30.5 -13t30.5 13l265 265q53 -43 118 -66.5t137 -23.5q110 0 205 55q92 54 146 146q55 94 55 205t-55 205q-54 92 -146 146
q-95 55 -205 55zM594 100q-93 0 -174 47q-77 46 -123 123q-47 81 -47 174t47 174q46 77 123 123q81 47 174 47t174 -47q77 -46 123 -124q47 -80 47 -173t-47 -173q-46 -78 -124 -124q-80 -47 -173 -47zM781 475h-375q-13 0 -22 -9t-9 -22t9 -22t22 -9h375q13 0 22.5 9
t9.5 22t-9.5 22t-22.5 9z" />
    <glyph glyph-name="zoom-in-alt" unicode="&#xe834;" 
d="M594 850q-111 0 -205 -55q-92 -54 -146 -146q-55 -95 -55 -205q0 -72 23.5 -137t66.5 -118l-265 -265q-13 -13 -13 -30.5t13 -30.5t30.5 -13t30.5 13l265 265q53 -43 118 -66.5t137 -23.5q110 0 205 55q92 54 146 146q55 94 55 205t-55 205q-54 92 -146 146
q-95 55 -205 55zM594 100q-93 0 -174 47q-77 46 -123 123q-47 81 -47 174t47 174q46 77 123 123q81 47 174 47t174 -47q77 -46 123 -124q47 -80 47 -173t-47 -173q-46 -78 -124 -124q-80 -47 -173 -47zM781 475h-156v156q0 13 -9 22.5t-22 9.5t-22 -9.5t-9 -22.5v-156h-157
q-13 0 -22 -9t-9 -22t9 -22t22 -9h157v-157q0 -13 9 -22t22 -9t22 9t9 22v157h156q13 0 22.5 9t9.5 22t-9.5 22t-22.5 9z" />
    <glyph glyph-name="search" unicode="&#xe835;" 
d="M594 850q-111 0 -205 -55q-92 -54 -146 -146q-55 -95 -55 -205q0 -72 23.5 -137t66.5 -118l-269 -269q-13 -13 -13 -30.5t13 -30.5t30.5 -13t30.5 13l269 269q53 -43 118 -66.5t137 -23.5q110 0 205 55q92 54 146 146q55 94 55 205t-55 205q-54 92 -146 146
q-95 55 -205 55zM594 100q-93 0 -174 47q-77 46 -123 123q-47 81 -47 174t47 174q46 77 123 123q81 47 174 47t174 -47q77 -46 123 -124q47 -80 47 -173t-47 -173q-46 -78 -124 -124q-80 -47 -173 -47z" />
    <glyph glyph-name="box-empty" unicode="&#xe836;" 
d="M813 725h-625q-26 0 -44.5 -18t-18.5 -44v-625q0 -26 18.5 -44.5t44.5 -18.5h625q26 0 44 18.5t18 44.5v625q0 26 -18 44t-44 18zM813 38h-625v625h625v-625z" />
    <glyph glyph-name="box-selected" unicode="&#xe837;" 
d="M813 725h-625q-26 0 -44.5 -18t-18.5 -44v-625q0 -26 18.5 -44.5t44.5 -18.5h625q26 0 44 18.5t18 44.5v625q0 26 -18 44t-44 18zM813 38h-625v625h625v-625zM375 163h250q26 0 44.5 18t18.5 44v250q0 26 -18.5 44.5t-44.5 18.5h-250q-26 0 -44 -18.5t-18 -44.5v-250
q0 -25 18.5 -43.5t43.5 -18.5z" />
    <glyph glyph-name="minus-box" unicode="&#xe838;" 
d="M250 538v-438q0 -26 18.5 -44t44.5 -18h437q26 0 44.5 18t18.5 44v438q0 26 -18.5 44t-44.5 18h-437q-26 0 -44.5 -18t-18.5 -44zM750 100h-437v438h437v-438zM406 288h250q13 0 22.5 9t9.5 22t-9.5 22t-22.5 9h-250q-13 0 -22 -9t-9 -22t9 -22t22 -9z" />
    <glyph glyph-name="plus-box" unicode="&#xe839;" 
d="M250 538v-438q0 -26 18.5 -44t44.5 -18h437q26 0 44.5 18t18.5 44v438q0 26 -18.5 44t-44.5 18h-437q-26 0 -44.5 -18t-18.5 -44zM750 100h-437v438h437v-438zM406 288h94v-94q0 -13 9 -22t22 -9t22.5 9t9.5 22v94h93q13 0 22.5 9t9.5 22t-9.5 22t-22.5 9h-93v94
q0 13 -9.5 22t-22.5 9t-22 -9t-9 -22v-94h-94q-13 0 -22 -9t-9 -22t9 -22t22 -9z" />
    <glyph glyph-name="box-checked" unicode="&#xe83a;" 
d="M813 38h-625v625h461l39 62h-500q-26 0 -44.5 -18t-18.5 -44v-625q0 -26 18.5 -44.5t44.5 -18.5h625q26 0 44 18.5t18 44.5v412l-62 -100v-312zM918 780q-13 8 -24 8t-20.5 -5t-16.5 -15l-340 -490l-131 150q-14 12 -31.5 11t-30.5 -14t-12 -31t15 -31l158 -180
q1 -2 3 -4l4 -5q2 0 2 -1l3 -3q3 -2 9 -4l2 -1q8 -2 13 -2h1q21 0 32 14l2 2l2 3v1l372 537q10 15 6.5 32.5t-18.5 27.5z" />
    <glyph glyph-name="circle-empty" unicode="&#xe83b;" 
d="M500 725q-102 0 -189 -51q-85 -50 -135 -135q-51 -87 -51 -189t51 -189q50 -85 135 -135q87 -51 189 -51t189 51q85 50 135 135q51 87 51 189t-51 189q-50 85 -135 135q-87 51 -189 51zM500 38q-85 0 -157 43q-71 41 -112 112q-43 72 -43 157t43 158q41 70 112 112
q72 43 157 43t158 -43q70 -42 112 -112q43 -73 43 -158t-43 -157q-42 -71 -112 -112q-73 -43 -158 -43z" />
    <glyph glyph-name="circle-selected" unicode="&#xe83c;" 
d="M500 725q-102 0 -189 -51q-85 -50 -135 -135q-51 -87 -51 -189t51 -189q50 -85 135 -135q87 -51 189 -51t189 51q85 50 135 135q51 87 51 189t-51 189q-50 85 -135 135q-87 51 -189 51zM500 38q-85 0 -157 43q-71 41 -112 112q-43 72 -43 157t43 158q41 70 112 112
q72 43 157 43t158 -43q70 -42 112 -112q43 -73 43 -158t-43 -157q-42 -71 -112 -112q-73 -43 -158 -43zM313 350q-4 -53 20 -100t69.5 -74.5t98 -27.5t98 27.5t69.5 74.5t20 100q4 53 -20 100t-69.5 74.5t-98 27.5t-98 -27.5t-69.5 -74.5t-20 -100z" />
    <glyph glyph-name="stop-alt2" unicode="&#xe83d;" 
d="M500 850q-136 0 -252 -68q-113 -67 -180 -180q-68 -116 -68 -252t68 -252q67 -113 180 -180q116 -68 252 -68t252 68q113 67 180 180q68 116 68 252t-68 252q-67 113 -180 180q-116 68 -252 68zM500 -88q-118 0 -220 60q-99 58 -157 157q-60 102 -60 221t60 221
q58 99 157 157q102 60 220.5 60t220.5 -60q99 -58 157 -157q60 -102 60 -221t-60 -221q-58 -99 -157 -157q-102 -60 -221 -60zM625 538h-250q-26 0 -44 -18.5t-18 -44.5v-250q0 -25 18.5 -43.5t43.5 -18.5h250q26 0 44.5 18t18.5 44v250q0 26 -18.5 44.5t-44.5 18.5z" />
    <glyph glyph-name="stop" unicode="&#xe83e;" 
d="M625 163q26 0 44.5 18t18.5 44v250q0 26 -18.5 44.5t-44.5 18.5h-250q-26 0 -44 -18.5t-18 -44.5v-250q0 -25 18.5 -43.5t43.5 -18.5h250z" />
    <glyph glyph-name="pause-alt2" unicode="&#xe83f;" 
d="M500 -150q136 0 252 68q113 67 180 180q68 116 68 252t-68 252q-67 113 -180 180q-116 68 -252 68t-252 -68q-113 -67 -180 -180q-68 -116 -68 -252t68 -252q67 -113 180 -180q116 -68 252 -68zM500 788q119 0 221 -60q99 -58 157 -157q60 -102 60 -221t-60 -221
q-58 -99 -157 -157q-102 -60 -220.5 -60t-220.5 60q-99 58 -157 157q-60 102 -60 221t60 221q58 99 157 157q102 60 220 60zM375 163q26 0 44.5 18t18.5 44v250q0 26 -18.5 44.5t-44.5 18.5t-44 -18.5t-18 -44.5v-250q0 -25 18.5 -43.5t43.5 -18.5zM625 163q26 0 44.5 18
t18.5 44v250q0 26 -18.5 44.5t-44.5 18.5t-44 -18.5t-18 -44.5v-250q0 -25 18.5 -43.5t43.5 -18.5z" />
    <glyph glyph-name="pause" unicode="&#xe840;" 
d="M375 538q-26 0 -44 -18.5t-18 -44.5v-250q0 -25 18.5 -43.5t44 -18.5t44 18.5t18.5 43.5v250q0 26 -18.5 44.5t-44.5 18.5zM563 225q0 -25 18.5 -43.5t44 -18.5t44 18.5t18.5 43.5v250q0 26 -18.5 44.5t-44.5 18.5t-44 -18.5t-18 -44.5v-250z" />
    <glyph glyph-name="menu" unicode="&#xe841;" 
d="M219 350h562q13 0 22.5 9t9.5 22.5t-9 22.5t-23 9h-562q-13 0 -22 -9.5t-9 -22.5t9 -22t22 -9zM219 538h562q13 0 22.5 9t9.5 22t-9.5 22t-22.5 9h-562q-13 0 -22 -9t-9 -22t9 -22t22 -9zM219 163h562q13 0 22.5 9t9.5 22t-9.5 22t-22.5 9h-562q-13 0 -22 -9t-9 -22
t9 -22t22 -9z" />
    <glyph glyph-name="menu-square-alt2" unicode="&#xe842;" 
d="M938 788h-813q-26 0 -44 -18.5t-18 -44.5v-813q0 -25 18.5 -43.5t43.5 -18.5h813q26 0 44 18.5t18 43.5v813q0 26 -18 44.5t-44 18.5zM938 -88h-813v813h813v-813zM281 288h500q13 0 22.5 9t9.5 22t-9.5 22t-22.5 9h-500q-13 0 -22 -9t-9 -22t9 -22t22 -9zM281 475h500
q13 0 22.5 9t9.5 22.5t-9 22.5t-23 9h-500q-13 0 -22 -9.5t-9 -22.5t9 -22t22 -9zM281 100h500q13 0 22.5 9t9.5 22.5t-9 22.5t-23 9h-500q-13 0 -22 -9.5t-9 -22.5t9 -22t22 -9z" />
    <glyph glyph-name="menu-circle-alt2" unicode="&#xe843;" 
d="M531 788q-127 0 -236 -64q-106 -62 -168 -168q-64 -110 -64 -237t64 -237q62 -106 168 -168q109 -64 236 -64t237 64q106 62 168 168q64 110 64 237t-64 237q-62 106 -168 168q-110 64 -237 64zM531 -88q-110 0 -205 56q-92 54 -146 146q-55 95 -55 205t55 205
q54 92 146 146q95 55 205 55t205 -55q92 -54 146 -146q56 -95 56 -205t-56 -205q-54 -92 -146 -146q-95 -56 -205 -56zM781 350h-500q-13 0 -22 -9t-9 -22t9 -22t22 -9h500q13 0 22.5 9t9.5 22t-9.5 22t-22.5 9zM781 538h-500q-13 0 -22 -9.5t-9 -22.5t9 -22t22 -9h500
q13 0 22.5 9t9.5 22.5t-9 22.5t-23 9zM781 163h-500q-13 0 -22 -9.5t-9 -22.5t9 -22t22 -9h500q13 0 22.5 9t9.5 22.5t-9 22.5t-23 9z" />
    <glyph glyph-name="ul" unicode="&#xe844;" 
d="M344 350h500q13 0 22 9t9 22t-9 22.5t-22 9.5h-500q-13 0 -22 -9.5t-9 -22.5t9 -22t22 -9zM344 600h500q13 0 22 9t9 22t-9 22.5t-22 9.5h-500q-13 0 -22 -9.5t-9 -22.5t9 -22t22 -9zM344 100h500q13 0 22 9t9 22t-9 22.5t-22 9.5h-500q-13 0 -22 -9.5t-9 -22.5t9 -22
t22 -9zM125 631q0 -13 9 -22t22.5 -9.5t22.5 9t9 22.5t-9 22.5t-22.5 9.5t-22.5 -9.5t-9 -22.5zM125 381q0 -13 9 -22t22.5 -9.5t22.5 9t9 22.5t-9 22.5t-22.5 9.5t-22.5 -9.5t-9 -22.5zM125 131q0 -13 9 -22.5t22.5 -9t22.5 9.5t9 22t-9 22.5t-22.5 9.5t-22.5 -9.5
t-9 -22.5z" />
    <glyph glyph-name="ol" unicode="&#xe845;" 
d="M844 413h-500q-13 0 -22 -9.5t-9 -22.5t9 -22t22 -9h500q13 0 22 9t9 22t-9 22.5t-22 9.5zM844 663h-500q-13 0 -22 -9.5t-9 -22.5t9 -22t22 -9h500q13 0 22 9t9 22t-9 22.5t-22 9.5zM844 163h-500q-13 0 -22 -9.5t-9 -22.5t9 -22t22 -9h500q13 0 22 9t9 22t-9 22.5
t-22 9.5zM218 554v154h-18l-34 -18l4 -16l27 15v-135h21zM168 333l-16 -16v-13h98v18h-69l12 11q28 27 39 43q14 21 14 39.5t-11 31.5q-13 14 -36.5 14t-43.5 -16l7 -14q18 13 33.5 13t22.5 -8.5t7 -22.5q0 -16 -14 -35q-11 -15 -43 -45zM194 71q-10 0 -21 4q-8 2 -14 6
l-5 -16q6 -4 17 -7.5t23 -3.5q26 0 41 13.5t15 32.5q0 16 -9.5 26.5t-24.5 13.5v0q14 5 21 15t7 22q0 15 -11.5 26t-32.5 11q-12 0 -22.5 -3.5t-17.5 -8.5l5 -16q15 11 30 11t21.5 -6.5t6.5 -18t-10.5 -18.5t-23.5 -7h-12v-15h12q16 0 27.5 -8t11.5 -23q1 -11 -7 -20
q-9 -10 -27 -10z" />
    <glyph glyph-name="adjust-horiz" unicode="&#xe846;" 
d="M844 663h-94q0 26 -18 44t-44 18h-63q-25 0 -43.5 -18t-18.5 -44h-407q-13 0 -22 -9.5t-9 -22.5t9 -22t22 -9h407q0 -25 18.5 -43.5t43.5 -18.5h63q26 0 44 18.5t18 43.5h94q13 0 22 9t9 22t-9 22.5t-22 9.5zM688 600h-63v63h63v-63zM844 413h-406q0 26 -18.5 44
t-44.5 18h-62q-26 0 -44.5 -18t-18.5 -44h-94q-13 0 -22 -9.5t-9 -22.5t9 -22t22 -9h94q0 -26 18.5 -44t44.5 -18h62q26 0 44.5 18t18.5 44h406q13 0 22 9t9 22t-9 22.5t-22 9.5zM375 350h-62v63h62v-63zM844 163h-219q0 26 -18 44t-44 18h-63q-25 0 -43.5 -18t-18.5 -44
h-282q-13 0 -22 -9.5t-9 -22.5t9 -22t22 -9h282q0 -25 18.5 -43.5t43.5 -18.5h63q26 0 44 18.5t18 43.5h219q13 0 22 9t9 22t-9 22.5t-22 9.5zM563 100h-63v63h63v-63z" />
    <glyph glyph-name="adjust-vert" unicode="&#xe847;" 
d="M313 600v94q0 13 -9.5 22t-22.5 9t-22 -9t-9 -22v-94q-25 0 -43.5 -18t-18.5 -44v-63q0 -25 18.5 -43.5t43.5 -18.5v-407q0 -13 9 -22t22 -9t22.5 9t9.5 22v407q26 0 44 18.5t18 43.5v63q0 26 -18 44t-44 18zM250 538h63v-63h-63v63zM563 288v406q0 13 -9.5 22t-22.5 9
t-22 -9t-9 -22v-406q-26 0 -44 -18.5t-18 -44.5v-62q0 -26 18 -44.5t44 -18.5v-94q0 -13 9 -22t22 -9t22.5 9t9.5 22v94q26 0 44 18.5t18 44.5v62q0 26 -18 44.5t-44 18.5zM500 225h63v-62h-63v62zM813 475v219q0 13 -9.5 22t-22.5 9t-22 -9t-9 -22v-219q-25 0 -43.5 -18
t-18.5 -44v-63q0 -25 18.5 -43.5t43.5 -18.5v-282q0 -13 9 -22t22 -9t22.5 9t9.5 22v282q26 0 44 18.5t18 43.5v63q0 26 -18 44t-44 18zM750 413h63v-63h-63v63z" />
    <glyph glyph-name="doc-alt" unicode="&#xe848;" 
d="M125 -150h750q26 0 44.5 18t18.5 44v876q0 26 -18.5 44t-44.5 18h-750q-25 0 -43.5 -18t-18.5 -44v-876q0 -25 18.5 -43.5t43.5 -18.5zM125 788h750v-876h-750v876zM719 663h-250q-13 0 -22 -9.5t-9 -22.5t9 -22t22 -9h250q13 0 22 9t9 22t-9 22.5t-22 9.5zM719 475h-438
q-13 0 -22 -9t-9 -22t9 -22t22 -9h438q13 0 22 9t9 22t-9 22t-22 9zM719 288h-438q-13 0 -22 -9.5t-9 -22.5t9 -22t22 -9h438q13 0 22 9t9 22t-9 22.5t-22 9.5zM719 100h-438q-13 0 -22 -9t-9 -22t9 -22t22 -9h438q13 0 22 9t9 22t-9 22t-22 9z" />
    <glyph glyph-name="docs-alt" unicode="&#xe849;" 
d="M125 -25h63v-63q0 -25 18.5 -43.5t43.5 -18.5h625q26 0 44.5 18t18.5 44v751q0 26 -18.5 44t-44.5 18h-62v63q0 26 -18.5 44t-44.5 18h-625q-25 0 -43.5 -18t-18.5 -44v-750q0 -26 18 -44.5t44 -18.5zM750 38h-625v750h625v-750zM875 663v-751h-625v63h500
q26 0 44.5 18.5t18.5 44.5v625h62zM313 631q0 -13 9 -22t22 -9h312q13 0 22.5 9t9.5 22.5t-9 22.5t-23 9h-312q-13 0 -22 -9.5t-9 -22.5zM219 413h437q13 0 22.5 9t9.5 22t-9.5 22t-22.5 9h-437q-13 0 -22 -9t-9 -22t9 -22t22 -9zM219 288h437q13 0 22.5 9t9.5 22t-9.5 22
t-22.5 9h-437q-13 0 -22 -9t-9 -22t9 -22t22 -9zM219 163h437q13 0 22.5 9t9.5 22t-9.5 22t-22.5 9h-437q-13 0 -22 -9t-9 -22t9 -22t22 -9z" />
    <glyph glyph-name="pencil" unicode="&#xe84a;" 
d="M941 -91l-65 198l-531 530l-32 -33l-100 -99l530 -531zM124 593l133 133l-66 65q-27 28 -66 28t-66.5 -27.5t-27.5 -66.5t28 -66z" />
    <glyph glyph-name="pencil-edit-alt" unicode="&#xe84b;" 
d="M644 93l169 -55l-56 168l-321 321l-113 -113zM257 481l112 112l-82 83q-23 23 -56.5 23t-56.5 -23t-23 -56.5t23 -56.5zM938 850h-875q-26 0 -44.5 -18t-18.5 -44v-876q0 -26 18.5 -44t44.5 -18h875q26 0 44 18.5t18 43.5v876q0 26 -18 44t-44 18zM938 -88h-875v876h875
v-876z" />
    <glyph glyph-name="pencil-edit" unicode="&#xe84c;" 
d="M662 188l-56 169l-321 321l-113 -113l322 -321zM23 827q-23 -23 -23 -56.5t23 -56.5l83 -82l113 112l-83 83q-23 23 -56.5 23t-56.5 -23zM938 663h-444l63 -63h381v-688h-688v381l-62 63v-444q0 -25 18.5 -43.5t43.5 -18.5h688q26 0 44 18.5t18 43.5v688q0 26 -18 44.5
t-44 18.5z" />
    <glyph glyph-name="folder-alt" unicode="&#xe84d;" 
d="M938 663h-283q-28 0 -52 -15q-27 -16 -40 -48l-2 -9q-4 -11 -9 -20q-8 -13 -19 -21q-14 -10 -33 -12h-437q-26 0 -44.5 -18t-18.5 -44v-564q0 -26 18.5 -44t44.5 -18h875q26 0 44 18.5t18 43.5v688q0 26 -18 44.5t-44 18.5zM938 476v-63v-501h-875v563h443q41 4 72 31
q26 23 40 58q7 18 19 28q8 6 17 8h284v-124z" />
    <glyph glyph-name="folder-open-alt" unicode="&#xe84e;" 
d="M1000 539v124q0 26 -18 44t-44 18h-313q-25 0 -43.5 -18t-18.5 -44l-2 -9q-4 -11 -9 -21q-8 -13 -19 -21q-14 -10 -33 -12h-437q-26 0 -44.5 -18t-18.5 -43v-64h1000v64zM63 -150h875q26 0 44 18.5t18 43.5v501h-1000v-501q0 -26 18.5 -44t44.5 -18zM63 350h875v-438
h-875v438z" />
    <glyph glyph-name="folder-add-alt" unicode="&#xe84f;" 
d="M938 663h-220q-29 0 -52 -15q-28 -16 -41 -48l-2 -9q-3 -11 -9 -20q-7 -13 -19 -21q-13 -10 -32 -12h-438q-26 0 -44 -18t-18 -44v-564q0 -25 18.5 -43.5t43.5 -18.5h813q26 0 44 18.5t18 43.5v688q0 26 -18 44.5t-44 18.5zM938 476v-63v-501h-813v563h443q41 4 72 31
q26 23 40 58q7 18 19 28q8 6 18 8h221v-124zM688 225h-125v125q0 13 -9.5 22t-22.5 9t-22 -9t-9 -22v-125h-125q-13 0 -22 -9t-9 -22t9 -22t22 -9h125v-125q0 -13 9 -22.5t22 -9.5t22.5 9.5t9.5 22.5v125h125q13 0 22 9t9 22t-9 22t-22 9z" />
    <glyph glyph-name="info-alt" unicode="&#xe850;" 
d="M500 850q-136 0 -252 -68q-113 -67 -180 -180q-68 -116 -68 -252t68 -252q67 -113 180 -180q116 -68 252 -68t252 68q113 67 180 180q68 116 68 252t-68 252q-67 113 -180 180q-116 68 -252 68zM500 -88q-118 0 -220 60q-99 58 -157 157q-60 102 -60 221t60 221
q58 99 157 157q102 60 220.5 60t220.5 -60q99 -58 157 -157q60 -102 60 -221t-60 -221q-58 -99 -157 -157q-102 -60 -221 -60zM500 475q-25 0 -43.5 -18t-18.5 -44v-313q0 -25 18.5 -43.5t44 -18.5t44 18.5t18.5 43.5v313q0 26 -18.5 44t-44.5 18zM438 599q-2 -18 5.5 -34.5
t23 -26.5t34 -10t34 10t23 26.5t5.5 34.5q2 18 -5.5 34.5t-23 26.5t-34 10t-34 -10t-23 -26.5t-5.5 -34.5z" />
    <glyph glyph-name="attention-oct-alt" unicode="&#xe851;" 
d="M725 832q-18 18 -44 18h-362q-26 0 -44 -18l-257 -257q-18 -18 -18 -44v-362q0 -26 18 -44l257 -257q18 -18 44 -18h362q26 0 44 18l257 257q18 18 18 44v362q0 26 -18 44zM938 169l-257 -257h-362l-256 257v362l256 257h362l257 -257v-362zM500 663q-26 0 -44 -18.5
t-18 -44.5v-312q0 -26 18 -44.5t44 -18.5t44.5 18.5t18.5 44.5v312q0 26 -18.5 44.5t-44.5 18.5zM438 100q-2 -18 5.5 -34.5t23 -26.5t34 -10t34 10t23 26.5t5.5 34.5q2 18 -5.5 34.5t-23 26.5t-34 10t-34 -10t-23 -26.5t-5.5 -34.5z" />
    <glyph glyph-name="attention-circle-alt" unicode="&#xe852;" 
d="M500 850q-136 0 -252 -68q-113 -67 -180 -180q-68 -116 -68 -252t68 -252q67 -113 180 -180q116 -68 252 -68t252 68q113 67 180 180q68 116 68 252t-68 252q-67 113 -180 180q-116 68 -252 68zM500 -88q-118 0 -220 60q-99 58 -157 157q-60 102 -60 221t60 221
q58 99 157 157q102 60 220.5 60t220.5 -60q99 -58 157 -157q60 -102 60 -221t-60 -221q-58 -99 -157 -157q-102 -60 -221 -60zM500 663q-26 0 -44 -18.5t-18 -44.5v-312q0 -26 18 -44.5t44 -18.5t44.5 18.5t18.5 44.5v312q0 26 -18.5 44.5t-44.5 18.5zM438 101
q-2 -18 5.5 -34.5t23 -26.5t34 -10t34 10t23 26.5t5.5 34.5q2 18 -5.5 34.5t-23 26.5t-34 10t-34 -10t-23 -26.5t-5.5 -34.5z" />
    <glyph glyph-name="attention-alt" unicode="&#xe853;" 
d="M989 -58l-434 812q-8 16 -23 25t-32 9v0q-17 0 -32 -9t-23 -24l-436 -813q-7 -14 -6.5 -31t8.5 -31t22.5 -22t30.5 -8h870q17 0 31 8t22.5 22t9 30.5t-7.5 31.5zM64 -88l436 813l434 -813h-870zM438 412v-188q0 -25 18.5 -43.5t44 -18.5t44 18.5t18.5 43.5v188
q0 26 -18.5 44t-44.5 18t-44 -18t-18 -44zM438 38q-2 -18 5.5 -34.5t23 -26.5t34 -10t34 10t23 26.5t5.5 34.5q2 18 -5.5 34.5t-23 26.5t-34 10t-34 -10t-23 -26.5t-5.5 -34.5z" />
    <glyph glyph-name="question-alt2" unicode="&#xe854;" 
d="M500 850q-136 0 -252 -68q-113 -67 -180 -180q-68 -116 -68 -252t68 -252q67 -113 180 -180q116 -68 252 -68t252 68q113 67 180 180q68 116 68 252t-68 252q-67 113 -180 180q-116 68 -252 68zM500 -88q-118 0 -220 60q-99 58 -157 157q-60 102 -60 221t60 221
q58 99 157 157q102 60 220.5 60t220.5 -60q99 -58 157 -157q60 -102 60 -221t-60 -221q-58 -99 -157 -157q-102 -60 -221 -60zM430 37q0 -27 19 -45.5t45.5 -18.5t45.5 18.5t19 45.5t-19 46t-45.5 19t-45.5 -19t-19 -46zM495 725q-63 0 -119 -29q-59 -30 -93 -84
q-38 -60 -38 -138q0 -26 18 -44.5t44 -18.5t44.5 18.5t18.5 44.5q0 41 19 71q17 27 47 42q27 13 59 13q49 0 80 -18q45 -27 45 -87q0 -30 -12 -52q-17 -30 -59.5 -53t-74.5 -62q-42 -50 -42 -103q0 -26 18.5 -44t44.5 -18t44 18t18 44q0 9 16 26.5t35 28.5q137 75 137 215
q0 76 -37 130q-34 49 -93 76q-55 24 -120 24z" />
    <glyph glyph-name="question" unicode="&#xe855;" 
d="M430 37q0 -27 19 -45.5t45.5 -18.5t45.5 18.5t19 45.5t-19 46t-45.5 19t-45.5 -19t-19 -46zM608 280q137 75 137 215q0 76 -37 130q-34 49 -93 76q-55 24 -120 24q-63 0 -119 -29q-59 -30 -93 -84q-38 -60 -38 -138q0 -26 18 -44.5t44 -18.5t44.5 18.5t18.5 44.5
q0 41 19 71q17 27 47 42q27 13 59 13q49 0 80 -18q45 -27 45 -87q0 -30 -12 -52q-17 -30 -59.5 -53t-74.5 -62q-42 -50 -42 -103q0 -26 18.5 -44t44.5 -18t44 18t18 44q0 9 16 26.5t35 28.5z" />
    <glyph glyph-name="comment-alt" unicode="&#xe856;" 
d="M59 -68q4 -8 12 -13t17 -5q67 0 126.5 17t124.5 55q34 -5 83 -9q52 -5 78 -5q135 0 250 56q113 53 178 145q68 95 68 206t-68 206q-65 92 -178 145q-115 56 -250 56t-250 -56q-113 -53 -178 -145q-68 -95 -68 -206q0 -79 36.5 -153t104.5 -131q-33 -71 -81 -130
q-6 -7 -7.5 -16t2.5 -17zM66 379q0 93 59 174q58 78 156 124q101 47 219 47t219 -47q98 -46 156 -124q59 -81 59 -174t-59 -174q-58 -78 -156 -124q-101 -47 -219 -47q-26 0 -82 6q-54 5 -79 10q-12 2 -22 -4q-83 -52 -163 -65q37 59 58 112q4 10 1 20t-12 17
q-65 50 -100 114t-35 135z" />
    <glyph glyph-name="chat-alt" unicode="&#xe857;" 
d="M872 482q9 -37 9 -77q0 -99 -53 -187q-51 -85 -141.5 -143t-202.5 -76q76 -30 158 -30q79 0 150 27q73 -25 174 -25q-35 42 -60 93q44 39 69 89.5t25 105.5q0 66 -35 125q-33 56 -93 98zM46 56q4 -8 11.5 -12.5t16.5 -4.5h1q27 2 71 18q49 19 98 50q32 -6 78 -12
q51 -7 71 -7q108 0 199 47q89 45 140 124q53 81 53 176.5t-53 176.5q-52 79 -141 125q-91 48 -198 48t-198 -48q-88 -46 -140 -125q-53 -81 -53 -176q0 -67 28 -129.5t80 -110.5q-22 -55 -61 -107q-5 -7 -6 -16t3 -17zM64 436q0 78 45 144q44 65 119 103q76 39 166 39
t166 -39q75 -38 118 -103q45 -66 45 -144q0 -80 -43 -145.5t-118.5 -103t-167.5 -37.5q-17 0 -74 8q-49 7 -76 12q-12 3 -24 -4q-35 -23 -74 -41q16 30 31 69q3 10 0.5 19.5t-10.5 15.5q-50 41 -76.5 94.5t-26.5 112.5z" />
    <glyph glyph-name="vol-mute-alt" unicode="&#xe858;" 
d="M63 92h143q7 -7 140 -120l132 -111q18 -11 35 -11h5q16 1 28.5 13.5t16.5 28.5v916q-4 16 -16.5 28.5t-28.5 13.5h-5q-17 0 -35 -11l-132 -115q-133 -117 -140 -124h-143q-26 0 -44.5 -18t-18.5 -44v-383q0 -26 18.5 -44.5t44.5 -18.5zM63 163v367v8h143q26 0 43 17
l93 82l158 138v-851l-15 13q-225 190 -235 199q-19 19 -44 19h-143v8zM989 512q-11 11 -27 11t-27 -11l-108 -108l-108 108q-11 11 -27 11t-27 -11t-11 -27t11 -27l108 -108l-108 -108q-11 -11 -11 -27t11 -27t27 -11t27 11l108 108l108 -108q11 -11 27 -11t27 11t11 27
t-11 27l-108 108l108 108q11 11 11 27t-11 27z" />
    <glyph glyph-name="vol-low-alt" unicode="&#xe859;" 
d="M638 850q-17 0 -35 -11l-132 -115q-133 -117 -140 -124h-143q-26 0 -44.5 -18t-18.5 -44v-383q0 -26 18.5 -44.5t44.5 -18.5h143q7 -7 140 -120l132 -111q18 -11 35 -11h5q16 1 28.5 13.5t16.5 28.5v916q-4 16 -16.5 28.5t-28.5 13.5h-5zM625 -76q-5 4 -15 13
q-225 190 -235 199q-19 19 -44 19h-143v383h143q26 0 43 17l93 82l158 138v-851zM784 241q-12 -6 -16 -18.5t2 -23.5q4 -8 11.5 -12.5t16.5 -4.5q7 0 14 3q47 24 74.5 68.5t27.5 96.5t-27.5 96.5t-74.5 68.5q-12 6 -24 2t-18 -15.5t-2 -24t16 -18.5q31 -16 49.5 -45
t18.5 -64t-18.5 -64t-49.5 -45z" />
    <glyph glyph-name="vol-high-alt" unicode="&#xe85a;" 
d="M63 92h143q7 -7 140 -120l132 -111q18 -11 35 -11h5q16 1 28.5 13.5t16.5 28.5v916q-4 16 -16.5 28.5t-28.5 13.5h-5q-17 0 -35 -11l-132 -115q-133 -117 -140 -124h-143q-26 0 -44.5 -18t-18.5 -44v-383q0 -26 18.5 -44.5t44.5 -18.5zM63 163v367v8h143q26 0 43 17
l93 82l158 138v-851l-15 13q-225 190 -235 199q-19 19 -44 19h-143v8zM659 241q-12 -6 -16 -18.5t2 -23.5q4 -8 11.5 -12.5t16.5 -4.5q7 0 14 3q47 24 74.5 68.5t27.5 96.5t-27.5 96.5t-74.5 68.5q-12 6 -24 2t-18 -15.5t-2 -24t16 -18.5q31 -16 49.5 -45t18.5 -64
t-18.5 -64t-49.5 -45zM616 -9q2 -11 10.5 -18t19.5 -7q4 0 7 1q90 17 163 74q71 54 112 135.5t41 173.5t-41 173.5t-112 135.5q-73 57 -164 74q-12 3 -23 -4t-13 -20t5 -24t20 -13q76 -15 136.5 -61.5t94.5 -114.5t34 -146t-34 -146t-94.5 -114.5t-136.5 -61.5
q-13 -2 -20 -13t-5 -24z" />
    <glyph glyph-name="quotes" unicode="&#xe85b;" 
d="M250 440q0 -40 27 -68t65 -28q22 0 45 13q-5 -47 -29 -92q-32 -58 -96 -110q-10 -8 -11.5 -21t7 -24t23.5 -11q11 0 18 7q79 63 117 137q28 57 32 116q7 100 -41 148q-4 4 -7.5 7t-10.5 8l-3 2h-2q-4 3 -7 4l-3 1q-17 7 -32 7q-38 0 -65 -28t-27 -68zM553 440
q0 -40 27 -68t65 -28q22 0 45 13q-5 -47 -29 -92q-32 -58 -96 -110q-10 -8 -11.5 -21t7 -24t23.5 -11q11 0 18 7q79 63 117 137q28 57 32 116q7 98 -41 148q-4 4 -7.5 7t-10.5 8l-3 2h-2q-4 3 -7 4l-3 1q-17 7 -32 7q-38 0 -65 -28t-27 -68z" />
    <glyph glyph-name="quotes-alt2" unicode="&#xe85c;" 
d="M500 850q-136 0 -252 -68q-113 -67 -180 -180q-68 -116 -68 -252t68 -252q67 -113 180 -180q116 -68 252 -68t252 68q113 67 180 180q68 116 68 252t-68 252q-67 113 -180 180q-116 68 -252 68zM500 -88q-118 0 -220 60q-99 58 -157 157q-60 102 -60 221t60 221
q58 99 157 157q102 60 220.5 60t220.5 -60q99 -58 157 -157q60 -102 60 -221t-60 -221q-58 -99 -157 -157q-102 -60 -221 -60zM400 513q-4 4 -11 9l-3 2h-2q-4 3 -7 4l-3 1q-17 7 -32 7q-38 0 -65 -28t-27 -68t27 -68t65 -28q22 0 45 13q-5 -47 -29 -92q-32 -58 -96 -110
q-10 -8 -11.5 -21t7 -24t23.5 -11q11 0 18 7q79 63 117 137q28 57 32 116q7 100 -41 148q-4 4 -7 6zM703 513q-4 4 -11 9l-3 2h-2q-4 3 -7 4l-3 1q-17 7 -32 7q-38 0 -65 -28t-27 -68t27 -68t65 -28q22 0 45 13q-5 -47 -29 -92q-32 -58 -96 -110q-10 -8 -11.5 -21t7 -24
t23.5 -11q11 0 18 7q79 63 117 137q28 57 32 116q7 98 -41 148q-4 4 -7 6z" />
    <glyph glyph-name="clock-alt" unicode="&#xe85d;" 
d="M533 783q-91 0 -175 -34q-88 -35 -155 -102q-90 -90 -121 -212q-31 -118 0 -237q31 -121 121 -211q68 -67 155 -103q84 -34 175 -34t176 34q87 36 154 103q90 90 122 211q31 119 0 237q-32 122 -122 212q-67 67 -154 102q-84 34 -176 34zM819 31q-57 -57 -131 -88
t-155 -31t-154.5 31t-131 88t-88 131t-30.5 155t30.5 154.5t88 131t131 88t154.5 30.5t155 -30.5t131 -87.5t88 -131t31 -155t-31 -155t-88 -131zM719 350h-156v219q0 13 -9.5 22t-22.5 9t-22 -9t-9 -22v-250v0v0q0 -13 9 -22t22 -9h188q13 0 22 9t9 22t-9 22t-22 9z" />
    <glyph glyph-name="lock-alt" unicode="&#xe85e;" 
d="M500 850q-85 0 -158 -43q-70 -42 -112 -114q-42 -74 -42 -160v-58h-63q-25 0 -43.5 -18t-18.5 -44v-501q0 -25 18.5 -43.5t43.5 -18.5h750q26 0 44.5 18t18.5 44v501q0 26 -18.5 44t-44.5 18h-62v58q0 86 -43 160q-41 72 -112 114q-73 43 -158 43zM250 533
q0 69 33.5 127.5t91 93t125.5 34.5t125.5 -34.5t91 -93t33.5 -127.5v-58h-500v58zM875 -88h-750v501h750v-501zM625 163q0 34 -17 62.5t-45.5 45.5t-62.5 17t-62.5 -17t-45.5 -45.5t-17 -62.5t17 -62.5t45.5 -45.5t62.5 -17t62.5 16.5t45.5 45.5t17 63zM500 100
q-26 0 -44 18.5t-18 44.5t18 44t44 18t44.5 -18.5t18.5 -43.5t-18.5 -44t-44.5 -19z" />
    <glyph glyph-name="lock-open-alt" unicode="&#xe85f;" 
d="M938 -88v501q0 26 -18.5 44t-44.5 18h-625v27q0 83 32 148t89.5 101.5t131.5 36.5q82 0 150 -44t104 -120q5 -12 17.5 -16t24 1t16 17.5t-1.5 24.5q-44 92 -127 145.5t-183 53.5q-90 0 -162 -45t-112.5 -124.5t-40.5 -178.5l-1 -27h-62q-25 0 -43.5 -18t-18.5 -44v-501
q0 -25 18.5 -43.5t43.5 -18.5h750q26 0 44.5 18t18.5 44zM125 413h750v-501h-750v501zM500 288q-34 0 -62.5 -17t-45.5 -45.5t-17 -62.5t17 -62.5t45.5 -45.5t62.5 -17t62.5 16.5t45.5 45.5t17 63t-17 63t-45.5 45.5t-62.5 16.5zM500 100q-26 0 -44 18.5t-18 44.5t18 44
t44 18t44.5 -18.5t18.5 -43.5t-18.5 -44t-44.5 -19z" />
    <glyph glyph-name="key-alt" unicode="&#xe860;" 
d="M344 69q0 28 -12 53q-16 33 -46.5 52.5t-65.5 19.5t-63.5 -17t-45.5 -45.5t-17 -62.5q0 -17 5 -35q32 -53 85 -85q18 -5 35 -5q34 0 62.5 17t45.5 45.5t17 62.5zM219 131q18 0 33.5 -10t22.5 -26q6 -12 6 -26q0 -26 -18 -44.5t-44 -18.5t-44.5 18.5t-18.5 44.5t18.5 44
t44.5 18zM969 850h-135q-10 0 -21 -7l-442 -374q-31 6 -58 6q-85 0 -158 -43q-71 -41 -112 -112q-43 -72 -43 -157t43 -158q41 -70 112 -112q73 -43 158 -43t158 43q70 41 112 112q42 73 42 158q0 51 -16 96l96 62q6 5 10 12t4 14v114l119 6q11 1 19.5 9t9.5 20l11 120
l104 50q8 4 13 11.5t5 16.5v125q0 13 -9 22t-22 9zM938 713l-102 -48q-8 -4 -12.5 -11t-5.5 -15l-11 -111l-121 -6q-13 -1 -21.5 -10t-8.5 -21v-127l-102 -66q-9 -6 -12 -17t1 -21q20 -49 20 -97q0 -68 -34 -125.5t-91.5 -91.5t-125.5 -34t-128 37q-53 32 -85 85
q-36 58 -36 129q0 67 33.5 124.5t91 91.5t125.5 34q24 0 59 -8q7 -2 14.5 -0.5t12.5 6.5l446 377h93v-75z" />
    <glyph glyph-name="cloud-alt" unicode="&#xe861;" 
d="M813 350q-2 0 -4 -1h-3q7 37 7 64q0 85 -43 157q-41 71 -112 112q-73 43 -158 43t-158 -43q-70 -41 -112 -112q-42 -72 -42 -157v-4q-53 -7 -95.5 -37.5t-67.5 -77t-25 -100.5t25 -101t68 -77.5t95 -37.5v-3h625q51 0 94 25.5t68 68.5t25 94t-25 94t-68 68t-94 25z
M813 38h-606q-6 2 -11 2q-37 5 -67.5 27t-48 55.5t-17.5 71.5t17.5 71.5t48 55.5t68.5 27q23 3 38.5 21t14.5 41v6q1 67 35 123.5t91 90t124.5 33.5t125 -34t91 -91.5t33.5 -124.5q0 -23 -5.5 -51.5t13.5 -52.5q9 -10 21.5 -16t26.5 -6h2q5 0 7 1q34 -1 62 -18t44.5 -45.5
t16.5 -62t-17 -62t-46 -45.5t-62 -17z" />
    <glyph glyph-name="cloud-upload-alt" unicode="&#xe862;" 
d="M814 350h-8q7 37 7 63q0 85 -43 157q-42 71 -112 112q-73 43 -158 43t-157 -42q-71 -41 -113 -111q-43 -72 -43 -156l1 -7q-53 -7 -96 -38t-67.5 -77.5t-24.5 -100t24.5 -100.5t67 -78.5t96.5 -39.5h156q13 0 22 9t9 22t-9 22.5t-22 9.5l-152 -1q-36 5 -65.5 28t-46.5 57
t-17 72t17.5 71.5t48 55.5t68.5 27l27 3q11 2 18.5 11t7.5 20v34q0 67 33.5 123.5t91 90t125.5 33.5t125.5 -34t91 -91.5t33.5 -124.5q0 -23 -5 -51l-8 -40q-3 -15 7.5 -27.5t26.5 -9.5h2q23 3 41 3q33 0 61.5 -17t45.5 -45.5t17 -62.5t-17 -62.5t-46 -45.5t-62 -17h-219
q-56 0 -80 27q-14 16 -14 35v207l74 -73q9 -10 22 -10t22 9.5t9 22.5t-9 22l-126 125q-9 10 -22 10h-1q-13 0 -23 -10l-126 -126q-9 -9 -9 -22t9 -22t22 -9t22 9l74 73v-206q0 -26 13 -52q16 -31 47 -50q39 -23 96 -23h219q51 0 94 25.5t68 68.5t25 94t-25 94t-67.5 68
t-93.5 25z" />
    <glyph glyph-name="cloud-download-alt" unicode="&#xe863;" 
d="M818 350q39 89 29 165q-7 53 -36 95q-34 47 -89 70.5t-108 12.5q-93 -17 -134.5 -83.5t-41.5 -196.5v-145l-73 72q-9 9 -22 9t-22 -9t-9 -22t9 -22l126 -126q9 -9 22.5 -9t22.5 9l127 127q9 9 9 22t-9 22t-22 9t-22 -9l-75 -75v147q0 84 18 134q16 42 47 63q22 15 61 22
q33 6 69 -8q41 -16 65 -50q32 -44 26 -107.5t-49 -137.5q-4 -7 -3.5 -16.5t5.5 -16.5t13.5 -10.5t17.5 -2.5l5 1q27 4 39 4q33 0 61.5 -17t45.5 -45.5t17 -62.5t-17 -62.5t-46 -45.5t-62 -17l-621 -1q-36 5 -65.5 28t-46.5 57t-17 72t17.5 71.5t48 55.5t68.5 27l27 3
q11 2 18.5 11t7.5 20v34q0 55 21 102.5t58.5 78t84.5 37.5q13 2 20.5 12.5t5.5 23.5t-12.5 20.5t-23.5 5.5q-62 -9 -111 -48.5t-77.5 -100t-28.5 -131.5l1 -7q-53 -7 -96 -38t-67.5 -77.5t-24.5 -100t24.5 -100.5t67 -78.5t96.5 -39.5h625q51 0 94 25.5t68 68.5t25 93.5
t-24.5 93t-66 68t-91.5 26.5z" />
    <glyph glyph-name="image" unicode="&#xe864;" 
d="M538 485q0 -36 25.5 -61.5t61.5 -25.5t61.5 25.5t25.5 61.5t-25.5 61.5t-61.5 25.5t-61.5 -25.5t-25.5 -61.5zM813 -25h62v375l-250 -187l-312 250l-188 -188v-250h63h625zM938 725h-875q-26 0 -44.5 -18t-18.5 -44v-751q0 -26 18.5 -44t44.5 -18h875q26 0 44 18.5
t18 43.5v751q0 26 -18 44t-44 18zM938 -88h-875v751h875v-751z" />
    <glyph glyph-name="images" unicode="&#xe865;" 
d="M938 663h-63v125q0 26 -18 44t-44 18h-750q-26 0 -44.5 -18t-18.5 -44v-688q0 -26 18.5 -44t44.5 -18h62v-126q0 -26 18.5 -44t44.5 -18h750q26 0 44 18.5t18 43.5v688q0 26 -18 44.5t-44 18.5zM63 100v688h750v-688h-750zM938 -88h-750v126h62v-63h625v625h63v-688z
M462 594q0 -36 25.5 -61.5t61.5 -25.5t61.5 25.5t25.5 61.5t-25.5 61.5t-61.5 25.5t-61.5 -25.5t-25.5 -61.5zM313 538l-188 -125v-250h625v312l-250 -125z" />
    <glyph glyph-name="bulb-alt" unicode="&#xe866;" 
d="M500 850q-102 0 -189 -51q-85 -50 -135 -135q-51 -87 -51 -189q0 -91 41.5 -171.5t115.5 -133.5l5 -3q15 -9 21 -35q4 -15 4 -30q-1 -1 -1 -4v-123q0 -18 9.5 -33t24.5 -23l127 -64q13 -7 28 -7t28 7l128 64q16 8 25 23t9 33v122q0 55 37 82l1 1q8 3 14 9q64 53 98.5 128
t34.5 158q0 102 -51 189q-50 85 -135 135q-87 51 -189 51zM374 98v2h254v-62h-254v60zM500 -89l-126 64h254zM702 236q-6 -3 -12 -7q-14 -10 -25 -23q-17 -19 -26 -43h-275q-15 39 -45 58q-61 43 -96 109.5t-35 144.5q0 85 42 158q42 71 112 112q73 43 158 43t158 -43
q71 -41 112 -112q43 -73 43 -158q0 -70 -30 -134q-29 -60 -81 -105zM531 725q-13 0 -22 -9t-9 -22t9 -22t22 -9q36 0 72.5 -20.5t59.5 -55.5q25 -38 25 -84q0 -13 9 -22t22 -9t22 9t9 22q0 68 -33 121q-30 48 -81 75q-49 26 -105 26z" />
    <glyph glyph-name="gift-alt" unicode="&#xe867;" 
d="M938 600h-374h-501q-26 0 -44.5 -18t-18.5 -44v-188h63v-438q0 -25 18.5 -43.5t43.5 -18.5h750q26 0 44.5 18t18.5 44v438h62v188q0 26 -18 44t-44 18zM63 538h375v-125h-375v125zM125 -88v438h313v-438h-313zM875 -88h-311v438h311v-438zM938 413h-374v125h374v-125z
M500 663v0v0v0h250q61 0 95 27q30 25 30 66t-30 66q-34 28 -95 28q-57 0 -108 -23q-43 -20 -79 -56q-28 18 -65 18q-32 0 -62 -16q-36 34 -79 54q-51 23 -107 23q-62 0 -95 -27q-30 -26 -30 -67t30 -66q33 -27 95 -27h250zM813 756q0 -31 -63 -31h-142l-1 3q26 26 60 42
q39 18 83 18q26 0 42 -6q21 -8 21 -26zM188 756q0 18 21 26q15 6 41 6q79 0 141 -58l-3 -5h-138q-62 0 -62 31z" />
    <glyph glyph-name="home-alt" unicode="&#xe868;" 
d="M51 294l74 60v-442q0 -26 18.5 -44t44.5 -18h187q26 0 44.5 18t18.5 44v251h125v-251q0 -25 18.5 -43.5t43.5 -18.5h188q26 0 44 18.5t18 43.5v442l74 -60q9 -6 20 -6q15 0 23.5 11t7 23.5t-11.5 20.5l-468 375q-9 7 -20 7t-19 -7l-168 -134v79q0 26 -18.5 44t-44.5 18
t-44 -18t-18 -44v-179l-176 -141q-10 -8 -11.5 -20.5t6.5 -23t20.5 -12t23.5 6.5zM500 654l313 -250v-492h-188v313h-250v-313h-187v492z" />
    <glyph glyph-name="genius" unicode="&#xe869;" 
d="M80 80q33 -52 111 -52q60 0 151 33q49 -211 158 -211q111 0 159 217q90 -31 152 -31q84 0 116.5 54.5t-7.5 129.5q-33 62 -112 133q33 33 47 49q119 135 66 219q-14 21 -37 34q-31 17 -75 17v0q-60 0 -151 -33q-49 211 -158 211q-60 0 -103 -66q-35 -55 -56 -151
q-90 31 -152 31v0q-84 0 -116.5 -54.5t7.5 -129.5q33 -62 112 -133q-33 -33 -47 -49q-119 -136 -65 -218zM500 -88q-29 0 -55 46t-44 126q61 28 102 50q45 -23 97 -45q-18 -82 -44 -129.5t-56 -47.5zM375 350q0 23 2 67q36 26 55 38l21 13q30 19 45 27q35 -19 67 -38l18 -12
q28 -17 40 -26q2 -44 2 -68t-2 -68q-36 -26 -55 -38l-66 -40q-35 19 -67 38l-16 10q-28 18 -42 28q-2 44 -2 69zM313 327q-18 14 -27 20q9 8 27 22v-42zM382 497q0 1 1 4q3 32 6 47q21 -9 43 -20q-11 -6 -33 -20l-5 -3q-8 -6 -12 -8zM563 530q7 3 20 9q18 10 28 14l7 -55z
M687 374q14 -10 27 -21q-9 -8 -27 -22l1 19zM618 203q0 -1 -1 -4q-3 -32 -6 -47l-43 20l34 20q10 8 16 11zM402 190q6 -3 18 -10l17 -10l-20 -9q-18 -10 -28 -14l-7 55zM873 122q-13 -24 -62 -24q-55 0 -140 31q7 50 13 120q42 32 78 63q67 -61 97.5 -112t13.5 -78zM809 609
q44 0 59 -22q17 -27 -12 -78.5t-95 -114.5q-28 22 -77 59q-6 73 -14 124q88 32 139 32zM500 788q29 0 55 -46t44 -126q-62 -28 -101 -50q-48 24 -98 45q18 82 44 129.5t56 47.5zM127 578q14 24 62 24q55 0 140 -31q-7 -53 -13 -120q-28 -21 -78 -63q-67 61 -97.5 112
t-13.5 78zM316 247q6 -73 14 -124q-88 -32 -139 -32q-44 0 -59 22q-17 27 12 78.5t95 114.5q28 -22 77 -59z" />
    <glyph glyph-name="mobile" unicode="&#xe86a;" 
d="M750 -150q26 0 44.5 18t18.5 44v876q0 26 -18.5 44t-44.5 18h-437q-26 0 -44.5 -18t-18.5 -44v-876q0 -26 18.5 -44t44.5 -18h437zM500 -52q0 14 10.5 24.5t24.5 10.5t24.5 -10.5t10.5 -25t-10 -25t-25 -10.5t-25 10.5t-10 25.5zM656 788q14 0 23 -9t9 -22.5t-9.5 -22.5
t-22.5 -9h-62q-13 0 -22 9t-9 22t9 22.5t22 9.5h62zM500 756q0 -13 -9 -22t-22 -9t-22 9t-9 22t9 22.5t22 9.5t22 -9.5t9 -22.5zM313 663h437v-625h-437v625z" />
    <glyph glyph-name="tablet" unicode="&#xe86b;" 
d="M813 -150q26 0 44 18.5t18 43.5v876q0 26 -18 44t-44 18h-625q-26 0 -44.5 -18t-18.5 -44v-876q0 -26 18.5 -44t44.5 -18h625zM500 -123q-14 0 -24.5 10.5t-10.5 24.5t10.5 25t24.5 11t24.5 -10.5t10.5 -25.5t-10.5 -25t-24.5 -10zM250 725h500v-750h-500v750z" />
    <glyph glyph-name="laptop" unicode="&#xe86c;" 
d="M968 100h-30v563q0 26 -18.5 44t-44.5 18h-750q-25 0 -43.5 -18t-18.5 -44v-563h-31q-13 0 -22.5 -9t-9.5 -22t9.5 -22t22.5 -9h936q13 0 22.5 9t9.5 22t-9.5 22t-22.5 9zM875 663v-498h-750v498h750z" />
    <glyph glyph-name="desktop" unicode="&#xe86d;" 
d="M938 788h-875q-26 0 -44.5 -18.5t-18.5 -44.5v-562q0 -26 18.5 -44.5t44.5 -18.5h312q0 -102 -19 -125h-13q-13 0 -21.5 -9t-8.5 -22.5t8.5 -22.5t21.5 -9h314q13 0 22 9.5t9 22.5t-9 22t-22 9h-13q-19 23 -19 125h313q26 0 44 18.5t18 44.5v562q0 26 -18 44.5t-44 18.5z
M438 100h-1h1zM563 100v0v0v0zM938 225h-875v500h875v-500z" />
    <glyph glyph-name="camera-alt" unicode="&#xe86e;" 
d="M938 538h-125l-6 1q-8 2 -16 7q-11 7 -20 18q-12 15 -21 36q-12 30 -23 44q-16 19 -39 19h-250q-24 0 -40 -19q-11 -14 -23 -44q-9 -21 -20 -36q-10 -11 -20 -18q-8 -5 -16 -7l-6 -1h-63q0 26 -18 44t-44 18h-63q-25 0 -43.5 -18t-18.5 -44q-26 0 -44.5 -18.5
t-18.5 -44.5v-500q0 -26 18.5 -44.5t44.5 -18.5h875q26 0 44 18.5t18 44.5v500q0 26 -18 44.5t-44 18.5zM938 -25h-875v250h284q7 -53 37.5 -95.5t77 -67t101.5 -24.5t102.5 25.5t77.5 70.5t36 99h159v-258zM406 256q0 42 21 78.5t57 57.5t79 21t78.5 -21t56.5 -57.5
t21 -78.5t-21 -78t-57 -57t-78 -21t-78 21t-57.5 57t-21.5 78zM778 288q-7 52 -37.5 95t-77 67.5t-100.5 24.5t-100.5 -24.5t-77.5 -67.5t-38 -95h-284v187h250q31 0 62 23q37 27 58 79q4 9 9 20l2 3h237q3 -5 8 -17l3 -7q26 -61 71 -86q26 -15 50 -15h125v-187h-160z
M125 381q0 -13 9 -22t22.5 -9.5t22.5 9t9 22.5t-9 22.5t-22.5 9.5t-22.5 -9.5t-9 -22.5z" />
    <glyph glyph-name="cone-alt" unicode="&#xe86f;" 
d="M780 225l-23 63h-513l-119 -313h750zM287 225h426l72 -187h-569zM642 413h67l-24 62l-127 335q-7 18 -23 29t-35 11t-35 -11t-23 -29l-127 -335l-24 -62h351zM500 788l119 -313h-237zM968 -88h-936q-14 0 -23 -8.5t-9 -21.5t9.5 -22.5t22.5 -9.5h936q14 0 23 9.5t9 22.5
t-9 21.5t-23 8.5z" />
    <glyph glyph-name="ribbon-alt" unicode="&#xe870;" 
d="M164 -145q12 -5 24 -5q26 0 44 18l268 269l268 -269q18 -18 45 -18q11 0 23 5q18 7 28.5 22.5t10.5 34.5v876q0 26 -18 44t-44 18h-625q-26 0 -44.5 -18t-18.5 -44v-876q0 -19 10.5 -34.5t28.5 -22.5zM500 225l-312 -313v688h625v-688zM813 788v-125h-625v125h625z" />
    <glyph glyph-name="bag-alt" unicode="&#xe871;" 
d="M188 -150h625q26 0 44 18.5t18 43.5v688q0 26 -18 44.5t-44 18.5h-126q0 51 -25.5 94t-68 68t-93.5 25t-93.5 -25t-68 -68t-25.5 -94h-125q-26 0 -44.5 -18.5t-18.5 -44.5v-688q0 -26 18.5 -44t44.5 -18zM813 600v-688h-625v688h625zM500 788q33 0 61.5 -17t45.5 -45.5
t18 -62.5h-250q1 34 18 62.5t45.5 45.5t61.5 17zM406 475h188q13 0 22 9t9 22t-9 22.5t-22 9.5h-188q-13 0 -22 -9.5t-9 -22.5t9 -22t22 -9z" />
    <glyph glyph-name="creditcard" unicode="&#xe872;" 
d="M938 725h-875q-26 0 -44.5 -18t-18.5 -44v-625q0 -26 18.5 -44.5t44.5 -18.5h875q26 0 44 18.5t18 44.5v625q0 26 -18 44t-44 18zM938 38h-875v375h875v-375zM63 535v128h875v-128h-875zM156 100h313q13 0 22 9t9 22t-9 22.5t-22 9.5h-313q-13 0 -22 -9.5t-9 -22.5t9 -22
t22 -9zM563 131q0 -13 9 -22t22 -9t22 9t9 22t-9 22t-22 9t-22 -9t-9 -22zM688 131q0 -13 9 -22t22 -9t22 9t9 22t-9 22t-22 9t-22 -9t-9 -22zM813 131q0 -13 9 -22t22 -9t22 9t9 22t-9 22t-22 9t-22 -9t-9 -22z" />
    <glyph glyph-name="cart-alt" unicode="&#xe873;" 
d="M188 -88q-2 -18 5.5 -34.5t23 -26.5t34 -10t34 10t23 26.5t5.5 34.5q2 18 -5.5 34.5t-23 26.5t-34 10t-34 -10t-23 -26.5t-5.5 -34.5zM750 -88q-2 -18 5.5 -34.5t23 -26.5t34 -10t34 10t23 26.5t5.5 34.5q2 18 -5.5 34.5t-23 26.5t-34 10t-34 -10t-23 -26.5t-5.5 -34.5z
M-2 694q0 -13 9 -22t22 -9h65l39 -166l56 -278l-32 -143q-3 -15 6 -26.5t25 -11.5h709q13 0 22 9t9 22t-9 22t-22 9h-670l14 64l9 -1h570q28 0 42 8q18 10 30 38l101 312q8 26 1 45q-6 17 -22 25.5t-34 8.5h-750q-4 0 -11 -2l-3 -1l-24 104q-3 11 -11.5 17.5t-19.5 6.5h-90
q-13 0 -22 -9t-9 -22zM189 538h744l-100 -307l-3 -6h-580v6z" />
    <glyph glyph-name="paperclip" unicode="&#xe874;" 
d="M440 632q-50 50 -107 53.5t-100.5 -40t-39.5 -100.5t54 -106l357 -358q9 -9 22 -9t22 9t9.5 22t-9.5 22l-357 358q-27 27 -34 57q-7 35 20 61.5t62 19.5q30 -6 57 -33l397 -398q61 -61 85 -96q28 -42 26 -73.5t-36 -65.5q-52 -52 -110.5 -38.5t-140.5 96.5l-442 442
q-39 39 -60 84q-24 51 -19 99q7 55 51 99q51 50 113 48q48 -1 100 -33q34 -21 62 -50l406 -406q9 -9 22 -9t22 9t9 22t-9 23l-406 406q-61 61 -126 85.5t-126 12t-111 -63t-64 -114.5t9.5 -130.5t82.5 -125.5l441 -442q49 -48 85 -73q66 -45 126 -45q70 0 129 60
q57 57 55 120q-3 51 -45 109q-25 35 -84 94z" />
    <glyph glyph-name="tag-alt" unicode="&#xe875;" 
d="M908 787h-2h-394q-6 0 -20 -8q-10 -6 -14 -10l-460 -460q-18 -18 -18 -43.5t18 -44.5l353 -353q18 -18 44 -18t44 18l460 460q5 5 11 14q8 12 8 20v394q0 13 -8.5 22t-21.5 9zM875 374q-1 -2 -3 -4l-457 -458l-353 353l458 457q2 2 4 3h351v-351zM750 631q0 -13 9 -22
t22.5 -9t22.5 9t9 22t-9 22.5t-22.5 9.5t-22.5 -9.5t-9 -22.5z" />
    <glyph glyph-name="tags-alt" unicode="&#xe876;" 
d="M909 850h-1h-1v0h-1v0h-331q-6 0 -19 -8q-12 -7 -15 -10l-398 -398q-18 -18 -18 -44t18 -44l50 -50l-50 -49q-18 -19 -18 -44.5t18 -44.5l291 -290q18 -18 44 -18t44 18l398 398q4 4 10 14q8 12 8 20v519q0 13 -8 22t-21 9zM876 310h-0.5h-0.5l-397 -398l-291 290l50 50
l197 -197q18 -18 44 -18t44 18l354 354v-99zM876 600v-102l-1 -1v0l-397 -397l-291 290l396 395q2 2 4 3h289v-188zM751 694q0 -13 9 -22t22 -9t22 9t9 22t-9 22t-22 9t-22 -9t-9 -22z" />
    <glyph glyph-name="trash-alt" unicode="&#xe877;" 
d="M813 788h-125q0 26 -18.5 44t-44.5 18h-187q-26 0 -44.5 -18t-18.5 -44h-125q-26 0 -44 -18.5t-18 -44.5h687q0 26 -18 44.5t-44 18.5zM188 -88q0 -25 18.5 -43.5t43.5 -18.5h563q26 0 44 18.5t18 43.5v751h-687v-751zM250 600h563v-688h-563v688zM344 538
q-13 0 -22 -9.5t-9 -22.5v-500q0 -13 9 -22t22 -9t22 9t9 22v500q0 13 -9 22.5t-22 9.5zM531 538q-13 0 -22 -9.5t-9 -22.5v-500q0 -13 9 -22t22 -9t22.5 9t9.5 22v500q0 14 -9 23t-23 9zM719 538q-13 0 -22 -9.5t-9 -22.5v-500q0 -13 9 -22t22 -9t22 9t9 22v500
q0 13 -9 22.5t-22 9.5z" />
    <glyph glyph-name="cursor-alt" unicode="&#xe878;" 
d="M307 839q-6 8 -15.5 10.5t-19 -1t-15 -11.5t-5.5 -18v-816q0 -10 6 -18t15 -11l2 -1q6 -1 8 -1q15 0 25 13l140 188l97 -277q9 -27 34.5 -39.5t52.5 -2.5t39 35t3 52l-96 272l219 -43q10 -1 19 3t14 12.5t4 18t-7 17.5zM483 295q-9 2 -17.5 -1.5t-13.5 -10.5l-137 -185
v635l407 -484z" />
    <glyph glyph-name="mic-alt" unicode="&#xe879;" 
d="M438 44v-132h-94q-13 0 -22 -9t-9 -22t9 -22t22 -9h312q13 0 22.5 9t9.5 22t-9.5 22t-22.5 9h-93v132q68 14 123 52q58 41 91 103q36 67 36 151v94q0 13 -9.5 22t-22.5 9t-22 -9t-9 -22v-94q0 -78 -37 -138q-34 -54 -93 -84q-56 -28 -119.5 -28t-118.5 27q-60 28 -94 82
q-38 59 -38 141v94q0 13 -9 22t-22 9t-22 -9t-9 -22v-94q0 -85 35 -153q33 -62 91 -102q55 -39 124 -51zM500 163q51 0 94 25t68.5 68t25.5 94v313q0 51 -25.5 94t-68.5 68t-94 25t-94 -25t-68 -68t-25 -94v-313q0 -51 25 -94t68 -68t94 -25zM375 663q0 34 17 62.5
t45.5 45.5t62.5 17t62.5 -17t45.5 -45.5t17 -62.5v-313q0 -34 -17 -62.5t-45.5 -45.5t-62.5 -17t-62.5 17t-45.5 45.5t-17 62.5v313z" />
    <glyph glyph-name="compass-alt" unicode="&#xe87a;" 
d="M500 850q-136 0 -252 -68q-113 -67 -180 -180q-68 -116 -68 -252t68 -252q67 -113 180 -180q116 -68 252 -68t252 68q113 67 180 180q68 116 68 252t-68 252q-67 113 -180 180q-116 68 -252 68zM500 -88q-118 0 -220 60q-99 58 -157 157q-60 102 -60 221t60 221
q58 99 157 157q102 60 220.5 60t220.5 -60q99 -58 157 -157q60 -102 60 -221t-60 -221q-58 -99 -157 -157q-102 -60 -221 -60zM702 595l-116 -72l-78 -49q47 -3 80 -36t36 -80l121 194q6 10 5 20.5t-9 18.5t-19 9t-20 -5zM376 342l-49 -78l-72 -116q-6 -10 -5 -20.5t9.5 -19
t21.5 -8.5q9 0 17 5l194 121q-47 3 -80 36t-36 80zM508 474q-1 0 -4 1h-4q-34 0 -62.5 -17t-45.5 -45.5t-17 -62.5l1 -8q3 -47 36 -80t80 -36l8 -1q34 0 62.5 17t45.5 45.5t17 62.5l-1 8q-3 47 -36 80t-80 36zM438 350q0 26 18.5 44.5t44 18.5t44 -18.5t18.5 -44t-18.5 -44
t-44 -18.5t-44 18.5t-18.5 43.5z" />
    <glyph glyph-name="location-alt" unicode="&#xe87b;" 
d="M475 337q44 0 81.5 22t59.5 59.5t22 81.5t-22 81.5t-59.5 59.5t-81.5 22t-81.5 -22t-59 -59.5t-21.5 -81.5t22 -81.5t59 -59.5t81 -22zM475 600q42 0 71.5 -29.5t29.5 -70.5q0 -27 -13.5 -50.5t-37 -37t-50.5 -13.5q-42 0 -71 29.5t-29 71.5t29.5 71t70.5 29zM453 -133
q8 -9 15 -12v0q5 -3 9.5 -3t10.5 3v0q8 3 15 12l30 35q38 45 74 94q51 68 91 135q50 83 81 159q36 90 44 167q3 21 3 43q0 95 -48 177q-46 79 -126 125q-82 48 -177 48t-177 -48q-79 -46 -125 -125q-48 -82 -48 -177q0 -23 3 -44q8 -77 45 -166q32 -76 82 -160
q41 -66 92 -135q37 -48 75 -93zM475 788q78 0 145 -40q65 -38 104 -104t39 -144q0 -22 -2 -37q-15 -135 -126 -316q-68 -109 -157 -215q-92 108 -160 215q-113 181 -128 317q-2 14 -2 36q0 78 39 145q38 65 103 103q67 40 145 40z" />
    <glyph glyph-name="pushpin-alt" unicode="&#xe87c;" 
d="M272 295q-10 -11 -14 -26t-0.5 -29.5t13.5 -26.5t23 -17q34 -14 87.5 -22.5t118.5 -10.5v0v-188q0 -32 9 -76q10 -49 22 -49t22 49q10 44 10 76v188h-1q65 2 119 10.5t87 22.5q14 5 23.5 16.5t13 26.5t0 30t-13.5 26q-32 36 -103 53v324q49 17 82 41q14 10 20.5 26.5
t4.5 33.5t-13.5 30.5t-28.5 19.5q-84 27 -221 27t-225 -28q-16 -6 -27 -19.5t-13.5 -30.5t4 -33t19.5 -26q35 -26 85 -42v-323q-72 -18 -103 -53zM394 730q-42 14 -66 33q30 10 75 17q58 8 127.5 8t126.5 -8q46 -7 76 -17q-27 -18 -66 -32l-42 -14v-417l47 -12
q54 -14 72 -35q-27 -11 -75 -18q-61 -10 -138 -10t-138 10q-48 7 -74 18q18 21 71 35l48 12v416z" />
    <glyph glyph-name="map-alt" unicode="&#xe87d;" 
d="M951 724l-281 125q-5 1 -13.5 1t-12.5 -1l-301 -123l-267 123q-4 1 -13 1q-21 0 -40 -14q-23 -20 -23 -48v-750q0 -22 13.5 -39.5t35.5 -22.5l280 -125q4 -1 13 -1t13 1l301 123l268 -123q4 -1 14 -1q20 0 39 14q11 9 17 22t6 26v751q0 22 -13.5 39t-35.5 22zM375 675
l250 100v-750l-250 -100v750zM63 788l250 -112v-750l-250 112v750zM938 -88l-250 112v750l250 -111v-751z" />
    <glyph glyph-name="drawer-alt" unicode="&#xe87e;" 
d="M791 788h-588q-25 0 -45.5 -16.5t-32.5 -46.5l-125 -436v-345q0 -13 9 -22.5t22 -9.5h938q13 0 22 9.5t9 22.5v341l-125 440q-14 29 -36 46t-48 17zM184 704q9 21 19 21h588q13 0 25 -22l118 -415h-278q-13 0 -22 -9.5t-9 -22.5v-93h-250v93q0 13 -9 22.5t-22 9.5h-279z
M938 -25h-875v250h250v-94q0 -13 9 -22t22 -9h312q13 0 22.5 9t9.5 22v94h250v-250z" />
    <glyph glyph-name="toolbox-alt" unicode="&#xe87f;" 
d="M938 538h-250q0 -26 -18.5 -44.5t-44.5 -18.5h313v-125h-313q26 0 44.5 -18t18.5 -44h250v-376h-875v376h250q0 26 18.5 44t43.5 18h-312v125h312q-26 0 -44 18.5t-18 44.5h-250q-26 0 -44.5 -18.5t-18.5 -44.5v-563q0 -26 18.5 -44t44.5 -18h875q26 0 44 18.5t18 43.5
v563q0 26 -18 44.5t-44 18.5zM375 475h250q26 0 44.5 18.5t18.5 44.5v62q0 26 -18.5 44.5t-44.5 18.5h-250q-26 0 -44 -18.5t-18 -44.5v-62q0 -26 18 -44.5t44 -18.5zM375 600h250v-62h-250v62zM313 288v-63q0 -25 18.5 -43.5t43.5 -18.5h250q26 0 44.5 18t18.5 44v63
q0 26 -18.5 44t-44.5 18h-250q-25 0 -43.5 -18t-18.5 -44zM625 225h-250v63h250v-63z" />
    <glyph glyph-name="book-alt" unicode="&#xe880;" 
d="M845 850h-282h-405q-43 0 -78.5 -20.5t-57 -56.5t-22.5 -78v-687q0 -43 21.5 -79t57.5 -57.5t79 -21.5h531q25 0 43 18t18 44v657q0 13 -8.5 22t-21.5 9h-562q-40 0 -67.5 26.5t-27.5 66t27.5 67.5t67.5 28h655v-719q0 -13 9.5 -22t22.5 -9t21.5 9t8.5 22v750
q0 13 -8.5 22t-21.5 9zM158 538h530l1 -626h-531q-40 0 -67.5 28t-27.5 68v560q41 -30 95 -30z" />
    <glyph glyph-name="calendar" unicode="&#xe881;" 
d="M996 674q-6 20 -21.5 32.5t-36.5 12.5h-63v-97q0 -39 -27.5 -66.5t-66.5 -27.5t-66 27.5t-27 66.5v97h-376v-97q0 -39 -27.5 -66.5t-66 -27.5t-66 27.5t-27.5 66.5v97h-62q-21 0 -37 -12.5t-22 -32.5h-4v-762q0 -26 18.5 -44t44.5 -18h875q26 0 44 18.5t18 43.5v762h-4z
M938 -88h-875v501h875v-501zM218 590q14 0 23 9.5t9 22.5v197q0 13 -9.5 22t-22.5 9t-22 -9t-9 -22v-197q0 -13 9 -22.5t22 -9.5zM781 590q14 0 23 9.5t9 22.5v197q0 13 -9.5 22t-22.5 9t-22 -9t-9 -22v-197q0 -13 9 -22.5t22 -9.5z" />
    <glyph glyph-name="film" unicode="&#xe882;" 
d="M938 850h-875q-26 0 -44.5 -18t-18.5 -44v-876q0 -26 18.5 -44t44.5 -18h875q26 0 44 18.5t18 43.5v876q0 26 -18 44t-44 18zM188 288v-125h-125v125h125zM63 413v125h125v-125h-125zM250 225h500v-313h-500v313zM750 288h-500v500h500v-500zM813 288h125v-125h-125v125z
M813 413v125h125v-125h-125zM813 663v125h125v-125h-125zM188 663h-125v125h125v-125zM63 38h125v-126h-125v126zM813 38h125v-126h-125v126z" />
    <glyph glyph-name="table" unicode="&#xe883;" 
d="M999 728q-2 24 -19.5 42t-41.5 18h-875q-24 0 -42 -17.5t-20 -42.5h-1v-816q0 -26 18.5 -44t44.5 -18h875q26 0 44 18.5t18 43.5v816h-1zM375 413v187h250v-187h-250zM625 350v-193h-250v193h250zM313 600v-187h-250v187h250zM63 350h250v-193h-250v193zM63 -88v188h250
v-188h-250zM375 -88v188h250v-188h-250zM938 -88h-250v188h250v-188zM938 157h-250v193h250v-193zM938 413h-250v187h250v-187z" />
    <glyph glyph-name="contacts-alt" unicode="&#xe884;" 
d="M813 850h-750q-26 0 -44.5 -18t-18.5 -44v-876q0 -26 18.5 -44t44.5 -18h750q26 0 44 18.5t18 43.5v876q0 26 -18 44t-44 18zM63 788h125v-876h-125v876zM813 -88h-563v876h563v-876zM433 515q-3 -27 9 -51.5t35 -39t50.5 -14.5t50.5 14.5t35 39t9 51.5q3 27 -9 51.5
t-35 39t-50.5 14.5t-50.5 -14.5t-35 -39t-9 -51.5zM530 382q-42 0 -77.5 -28t-56.5 -75.5t-21 -103.5q0 -40 48 -64q44 -22 107 -22t107 21q48 24 48 65q0 56 -21 104t-56.5 75.5t-77.5 27.5zM938 788h62v-188h-62v188zM938 538h62v-188h-62v188zM938 288h62v-188h-62v188z
" />
    <glyph glyph-name="headphones" unicode="&#xe885;" 
d="M938 225v125q0 137 -65 241q-60 95 -163 147q-98 50 -210 50q-110 0 -208 -50q-103 -54 -163 -148q-66 -104 -66 -240v-125q-26 0 -44.5 -18t-18.5 -44v-125q0 -26 18.5 -44.5t44.5 -18.5q0 -26 18 -44.5t44 -18.5t44.5 18.5t18.5 44.5v250q0 26 -18.5 44.5t-44.5 18.5
v62q0 118 56 207q51 81 139 125q84 43 179.5 43t178.5 -40q89 -43 140 -123q57 -89 57 -212v-62q-26 0 -44 -18.5t-18 -44.5v-250q0 -26 18 -44.5t44 -18.5t44.5 18.5t18.5 44.5q26 0 44 18.5t18 44.5v125q0 26 -18 44t-44 18z" />
    <glyph glyph-name="lifesaver" unicode="&#xe886;" 
d="M500 850q-98 0 -188 -37q-94 -37 -166 -109q-96 -96 -130 -227q-33 -127 0 -254q34 -131 130 -227q72 -72 166 -109q90 -37 188 -37t188 37q94 37 166 109q96 96 130 227q33 127 0 254q-34 131 -130 227q-72 72 -166 109q-90 37 -188 37zM323 173q-35 35 -54 81t-19 96
t19 96t54 81t81 54t96 19t96 -19t81 -54t54 -81t19 -96t-19 -96t-54 -81t-81 -54t-96 -19t-96 19t-81 54zM693 742l-96 -96q-54 17 -97 17q-40 0 -88 -15l-98 98q90 42 186 42q103 0 193 -46zM104 536l98 -98q-13 -45 -12.5 -92.5t14.5 -92.5l-96 -96q-45 89 -45 193
q0 98 41 186zM191 41v0v0v0zM322 -49l98 98q41 -11 80 -11q43 0 88 14l98 -98q-90 -42 -186 -42q-92 0 -178 39zM896 164l-98 98q25 81 3 168l98 98q39 -87 38 -182t-41 -182z" />
    <glyph glyph-name="piechart" unicode="&#xe887;" 
d="M500 -150q118 0 224 53q101 52 172 142l-396 305v500q-136 0 -252 -68q-113 -67 -180 -180q-68 -116 -68 -252t68 -252q67 -113 180 -180q116 -68 252 -68zM438 783v-433q0 -14 6.5 -27.5t17.5 -21.5l342 -265q-61 -60 -139.5 -92t-164.5 -32q-118 0 -220 60
q-99 58 -157 157q-60 102 -60 221q0 108 50 203q49 93 134.5 154t190.5 76zM586 842v-448l357 -275q57 109 57 230.5t-55 228.5q-53 104 -147.5 174t-211.5 90z" />
    <glyph glyph-name="refresh" unicode="&#xe888;" 
d="M937 850q-26 0 -45 -18.5t-19 -44.5v-148l-15 19q-48 59 -78 88q-52 48 -114 73q-75 31 -173 31q-134 0 -249 -67q-111 -66 -177 -177q-67 -115 -67 -249t67 -249q66 -112 177 -177q115 -68 249 -68q106 0 201 42.5t165 119.5t103 178q8 26 -4 49.5t-37.5 31.5t-49 -4
t-31.5 -37q-25 -74 -76.5 -131t-122 -88.5t-148.5 -31.5q-99 0 -184 50q-82 48 -130 131q-50 85 -50 184t50 183q48 83 130 131q85 49 183 49t174 -56q55 -40 113 -125h-159q-26 0 -44.5 -18.5t-18.5 -44.5t18.5 -45t44.5 -19h317q26 0 44.5 19t18.5 45v311q0 26 -18.5 44.5
t-44.5 18.5z" />
    <glyph glyph-name="link-alt" unicode="&#xe889;" 
d="M299 723q27 28 66 28t66 -28l335 -335q13 48 1 96.5t-48 84.5l-221 221q-36 36 -84.5 48.5t-97 0t-84.5 -48.5l-49 -50q-36 -36 -49 -84t0 -96.5t49 -84.5l221 -221q36 -36 84.5 -48.5t95.5 0.5l-335 335q-28 28 -28 66.5t28 66.5zM502 -90q36 -36 84.5 -48.5t97 0
t84.5 48.5l49 50q36 36 49 84.5t0 96.5t-49 84l-221 221q-36 36 -84.5 48.5t-95.5 -0.5l335 -335q28 -28 28 -66.5t-28 -66.5l-50 -49q-27 -28 -66 -28t-66 28l-335 335q-13 -47 -0.5 -96t47.5 -85z" />
    <glyph glyph-name="link" unicode="&#xe88a;" 
d="M236 357q30 -30 70.5 -40t81.5 2l-295 295q-15 15 -15 41q0 20 9.5 43.5t23 37t36.5 24.5q25 11 48 12q26 0 41 -14l295 -296q6 23 6 45q0 31 -11 58.5t-33 48.5l-200 201q-29 29 -76 34q-43 5 -88 -10.5t-75 -45.5q-25 -25 -40 -62.5t-15 -75.5q0 -29 9.5 -54.5
t26.5 -43.5zM764 343q-30 30 -70.5 40t-81.5 -2l296 -295q14 -16 14 -41q0 -20 -9.5 -43.5t-23 -37t-36.5 -24.5q-25 -11 -48 -12q-26 0 -41 14l-295 296q-6 -22 -6 -45q0 -30 11.5 -58t32.5 -49l200 -201q29 -29 76 -34q43 -5 88 10.5t75 45.5q25 25 40 62.5t15 75.5
q0 29 -9.5 54.5t-26.5 43.5zM286 564q-12 -12 -12 -30t12 -30l368 -368q13 -12 30 -12t29.5 12t12.5 30t-12 30l-368 368q-12 12 -29.5 12t-30.5 -12z" />
    <glyph glyph-name="loading" unicode="&#xe88b;" 
d="M844 137q0 -2 2 -4t4 -2t4 2t2 4t-2 4t-4 2t-4 -2t-2 -4zM719 7q0 -5 3 -8t8 -3t8 3t3 8t-3 8t-8 3t-8 -3t-3 -8zM550 -59q0 -7 5 -12t12 -5t12 5t5 12t-5 12t-12 5t-12 -5t-5 -12zM367 -50q0 -10 6.5 -16.5t16.5 -6.5t16.5 6.5t6.5 16.5t-6.5 16.5t-16.5 6.5t-16.5 -6.5
t-6.5 -16.5zM206 33q0 -12 8 -20t20 -8t20 8t8 20t-8 20t-20 8t-20 -8t-8 -20zM94 174q0 -14 10 -24t24 -10t24 10t10 24t-10 24t-24 10t-24 -10t-10 -24zM52 347q-2 -12 3 -22.5t15 -17t21.5 -6.5t21.5 6.5t15 17t3 22.5q2 12 -3 22.5t-15 17t-21.5 6.5t-21.5 -6.5t-15 -17
t-3 -22.5zM86 519q0 -19 13.5 -32.5t32 -13.5t32 13.5t13.5 32.5t-13.5 32.5t-32 13.5t-32 -13.5t-13.5 -32.5zM190 657q0 -21 15 -36t36 -15t36 15t15 36t-15 36t-36 15t-36 -15t-15 -36zM342 737q0 -24 16.5 -40.5t40.5 -16.5t40.5 16.5t16.5 40.5t-16.5 40.5t-40.5 16.5
t-40.5 -16.5t-16.5 -40.5zM513 742q0 -26 18.5 -44.5t44 -18t44 18.5t18.5 44t-18.5 44.5t-44 18t-44 -18.5t-18.5 -44zM670 671q0 -28 20 -48t48 -20t48 20t20 48t-20 48t-48 20t-48 -20t-20 -48zM781 539q-2 -21 7 -40.5t27 -31t39.5 -11.5t39.5 11.5t27 31t7 40.5
q2 21 -7 40.5t-27 31t-39.5 11.5t-39.5 -11.5t-27 -31t-7 -40.5zM825 368q0 -33 23.5 -56t56 -23t56 23t23.5 56t-23.5 56.5t-56 23.5t-56 -23.5t-23.5 -56.5z" />
    <glyph glyph-name="blocked" unicode="&#xe88c;" 
d="M500 850q-136 0 -252 -68q-113 -67 -180 -180q-68 -116 -68 -252t68 -252q67 -113 180 -180q116 -68 252 -68t252 68q113 67 180 180q68 116 68 252t-68 252q-67 113 -180 180q-116 68 -252 68zM500 725q102 0 189 -51q85 -50 135 -135q51 -87 51 -189q0 -60 -18 -115
t-52 -102l-522 522q47 34 102 52t115 18zM125 350q0 60 18 115t52 102l522 -522q-47 -34 -102 -52t-115 -18q-102 0 -189 51q-85 50 -135 135q-51 87 -51 189z" />
    <glyph glyph-name="archive-alt" unicode="&#xe88d;" 
d="M938 725h-875q-26 0 -44.5 -18t-18.5 -44v-125h1000v125q0 26 -18 44t-44 18zM938 600h-875v63h875v-63zM63 -88q0 -25 18.5 -43.5t43.5 -18.5h750q26 0 44.5 18t18.5 44v563h-875v-563zM125 413h750v-501h-750v501zM656 350h-312q-13 0 -22 -9t-9 -22t9 -22t22 -9h312
q13 0 22.5 9t9.5 22t-9.5 22t-22.5 9z" />
    <glyph glyph-name="heart-alt" unicode="&#xe88e;" 
d="M1000 418q-1 76 -39.5 142.5t-101.5 106.5q-65 41 -140 41q-65 0 -123 -32q-56 -30 -96 -83q-40 53 -96 83q-58 32 -123 32q-75 0 -140 -41q-63 -40 -101 -106.5t-39 -142.5h-1l1 -17q3 -70 25 -136q21 -60 58 -115q34 -50 80 -95q40 -40 90 -76q42 -31 89 -58
q38 -21 78 -40q28 -13 54 -23l21 -8l21 8q27 10 55 23q41 19 79 40q48 27 91 58q50 36 91 76q47 45 81 95q38 55 59 115q23 66 26 136zM936 403q-5 -135 -100 -252q-72 -89 -190 -160q-75 -46 -150 -74q-74 29 -148 74q-116 71 -186 160q-93 117 -98 253l-1 13
q1 61 31 113.5t80 83.5t107 31q48 0 92.5 -23.5t76.5 -66.5q19 -24 50 -24t50 24q32 43 76.5 66.5t92.5 23.5q57 0 107 -31t80 -83.5t31 -113.5z" />
    <glyph glyph-name="star-alt" unicode="&#xe88f;" 
d="M996 445q-5 17 -19 29t-31 14l-269 39l-121 244q-7 16 -22.5 25.5t-33.5 9.5t-33 -9.5t-23 -25.5l-120 -244l-270 -39q-17 -2 -31 -14t-19.5 -29t-1 -34t17.5 -30l194 -190l-46 -268q-3 -17 4 -33.5t21 -27.5q17 -12 37 -12q16 0 29 7l241 127l241 -127q13 -7 29 -7
q21 0 37 12q14 11 21 27.5t4 33.5l-46 268l195 190q13 13 17 30.5t-2 33.5zM718 213l52 -301l-270 142l-270 -142l52 301l-219 213l302 44l135 274l135 -274l302 -44z" />
    <glyph glyph-name="star-half-alt" unicode="&#xe890;" 
d="M996 445q-5 17 -19 29t-31 14l-269 39l-121 244q-7 16 -22.5 25.5t-33.5 9.5t-33 -9.5t-23 -25.5l-120 -244l-270 -39q-17 -2 -31 -14t-19.5 -29t-1 -34t17.5 -30l194 -190l-46 -268q-3 -17 4 -33.5t21 -27.5q17 -12 37 -12q16 0 29 7l241 127l241 -127q13 -7 29 -7
q21 0 37 12q14 11 21 27.5t4 33.5l-46 268l195 190q13 13 17 30.5t-2 33.5zM718 213l52 -301l-270 142v690l135 -274l302 -44z" />
    <glyph glyph-name="star" unicode="&#xe891;" 
d="M649 482l-153 311l-154 -311l-342 -49l248 -242l-59 -341l307 161l306 -161l-59 341l248 242z" />
    <glyph glyph-name="star-half" unicode="&#xe892;" 
d="M500 11v782l-153 -311l-342 -49l247 -242l-58 -341z" />
    <glyph glyph-name="tools" unicode="&#xe893;" 
d="M27 9q-28 -28 -28 -66.5t27.5 -66t66.5 -27.5t66 27l308 308l-133 133zM796 580l134 69l70 136l-65 65l-136 -70l-69 -134l-164 -163l67 -67zM825 224q-2 0 -6 1h-6q-31 0 -65 -12l-385 385q12 34 12 65l-1 12q-3 48 -29 88.5t-67 63.5t-90 23q-41 0 -81 -19l125 -124
q10 -11 14 -23q6 -17 2.5 -35t-16.5 -31q-18 -18 -44 -18q-8 0 -21 4t-24 14l-124 125q-19 -40 -19 -80q0 -49 23 -90.5t63.5 -67.5t88.5 -29l13 -1q30 0 64 12l385 -385q-12 -34 -12 -64l1 -13q3 -48 29 -88.5t67.5 -63.5t90.5 -23q40 0 80 19l-125 124q-10 11 -14 23
q-6 17 -2.5 35t16.5 31q20 18 45 18q7 0 20 -4t24 -14l124 -125q19 40 19 81q0 49 -23 90t-63.5 67t-88.5 29z" />
    <glyph glyph-name="tool" unicode="&#xe894;" 
d="M813 100q7 0 20 -4t24 -14l124 -125q19 40 19 81q0 49 -23 90t-63.5 67t-88.5 29l-12 1q-31 0 -65 -12l-385 385q12 34 12 65l-1 12q-3 48 -29 88.5t-67 63.5t-90 23q-41 0 -81 -19l125 -124q10 -11 14 -23q6 -17 2.5 -35t-16.5 -31q-18 -18 -44 -18q-8 0 -21 4t-24 14
l-124 125q-19 -40 -19 -80q0 -49 23 -90.5t63.5 -67.5t88.5 -29l13 -1q30 0 64 12l385 -385q-12 -34 -12 -64l1 -13q3 -48 29 -88.5t67.5 -63.5t90.5 -23q40 0 80 19l-125 124q-10 11 -14 23q-6 17 -2.5 35t16.5 31q20 18 45 18z" />
    <glyph glyph-name="cog" unicode="&#xe895;" 
d="M860 454q-13 44 -32 78l62 130q-34 44 -78 78l-130 -62q-34 19 -78 32l-49 137q-27 3 -55 3t-55 -3l-49 -137q-45 -13 -77 -32l-131 62q-43 -34 -78 -78l62 -130q-19 -34 -32 -78l-137 -49q-3 -27 -3 -55t3 -55l137 -49q13 -44 32 -78l-62 -130q35 -43 78 -78l131 62
q32 -19 77 -32l49 -137q27 -3 55 -3t55 3l49 137q44 13 78 32l130 -62q44 35 78 78l-62 131q19 32 32 77l137 49q3 27 3 55t-3 55zM500 100q-68 0 -125.5 33.5t-91 91t-33.5 125.5t33.5 125.5t91 91t125.5 33.5t125.5 -33.5t91 -91t33.5 -125.5t-33.5 -125.5t-91 -91
t-125.5 -33.5zM375 350q0 -34 17 -62.5t45.5 -45.5t62.5 -17t62.5 17t45.5 45.5t17 62.5t-17 62.5t-45.5 45.5t-62.5 17t-62.5 -17t-45.5 -45.5t-17 -62.5z" />
    <glyph glyph-name="cogs" unicode="&#xe896;" 
d="M31 313l108 4q17 -23 44 -46l-7 -108q16 -9 37 -19q26 -10 39 -14l74 80q29 -4 63 -1l72 -82q37 10 76 31l-3 108q22 18 45 44l108 -7q9 16 19 37q10 26 14 39l-80 74q4 29 1 63l82 72q-10 36 -31 77l-108 -4q-18 22 -44 45l7 108q-16 9 -37 19q-26 10 -39 14l-74 -80
q-29 4 -63 1l-72 82q-36 -10 -77 -31l4 -108q-22 -18 -45 -44l-108 7q-9 -16 -19 -37q-10 -26 -14 -39l80 -74q-4 -29 -1 -63l-82 -72q10 -37 31 -76zM436 661q47 -20 76.5 -60.5t35.5 -90t-14 -96.5t-60.5 -76.5t-90 -35.5t-96.5 14t-76.5 60.5t-35.5 90t14 96.5t60.5 76.5
t90 35.5t96.5 -14zM268 489q-3 -27 9 -51t35 -38.5t49.5 -14.5t49.5 14.5t35 38.5t9 51q3 27 -9 51t-35 38.5t-49.5 14.5t-49.5 -14.5t-35 -38.5t-9 -51zM939 114l-26 9l39 82q-10 13 -34 35l-57 -28l-25 -11l-31 85q-16 2 -24 2t-24 -2l-30 -86l-82 39q-19 -15 -34 -34
l39 -82l-86 -30q-1 -8 -1 -24t1 -24l60 -22l26 -9l-39 -82q18 -22 34 -34l82 39l30 -86q8 -1 24 -1t24 1l22 60l9 26l82 -39q19 15 34 34l-39 82l26 9l60 22q1 8 1 24t-1 24zM781 22q-19 0 -33 14t-14 33.5t14 33t33.5 13.5t33 -13.5t13.5 -33t-13.5 -33.5t-33.5 -14z" />
    <glyph glyph-name="arrow-up-alt" unicode="&#xe897;" 
d="M531 788q-127 0 -236 -64q-106 -62 -168 -168q-64 -110 -64 -237t64 -237q62 -106 168 -168q109 -64 236 -64t237 64q106 62 168 168q64 110 64 237t-64 237q-62 106 -168 168q-110 64 -237 64zM741 359q-9 -9 -22 -9t-22 9l-134 134v-487q0 -13 -9.5 -22t-22.5 -9t-22 9
t-9 22v487l-134 -134q-9 -9 -22 -9t-22 9t-9 22t9 22l187 188v0q2 2 7 5l3 2q13 5 24 0q6 -3 10 -7l188 -188q9 -9 9 -22t-9 -22z" />
    <glyph glyph-name="arrow-down-alt" unicode="&#xe898;" 
d="M531 788q-127 0 -236 -64q-106 -62 -168 -168q-64 -110 -64 -237t64 -237q62 -106 168 -168q109 -64 236 -64t237 64q106 62 168 168q64 110 64 237t-64 237q-62 106 -168 168q-110 64 -237 64zM741 234l-188 -187q-4 -5 -10 -7q-11 -5 -24 0q-4 2 -9 6l-188 188
q-9 9 -9 22t9 22.5t22 9.5t22 -10l134 -134v487q0 13 9 22.5t22 9.5t22.5 -9.5t9.5 -22.5v-487l134 134q9 10 22 10t22 -9.5t9 -22.5t-9 -22z" />
    <glyph glyph-name="arrow-left-alt" unicode="&#xe899;" 
d="M531 788q-127 0 -236 -64q-106 -62 -168 -168q-64 -110 -64 -237t64 -237q62 -106 168 -168q109 -64 236 -64t237 64q106 62 168 168q64 110 64 237t-64 237q-62 106 -168 168q-110 64 -237 64zM875 319q0 -13 -9 -22t-22 -9h-487l134 -135q9 -9 9 -22t-9 -22t-22 -9
t-22 9l-188 188v0q-4 4 -7 10q-2 8 -2 12v0v0q0 4 2 12l2 3q3 5 5 7l188 187q9 10 22 10t22 -9.5t9 -22.5t-9 -22l-134 -134h487q13 0 22 -9t9 -22z" />
    <glyph glyph-name="arrow-right-alt" unicode="&#xe89a;" 
d="M531 788q-127 0 -236 -64q-106 -62 -168 -168q-64 -110 -64 -237t64 -237q62 -106 168 -168q109 -64 236 -64t237 64q106 62 168 168q64 110 64 237t-64 237q-62 106 -168 168q-110 64 -237 64zM813 319v0q0 -6 -3 -12q-1 -4 -7 -10l-187 -188q-9 -9 -22 -9t-22 9t-9 22
t9 22l134 135h-487q-13 0 -22 9t-9 22t9 22t22 9h487l-134 134q-10 9 -10 22t9.5 22.5t22.5 9.5t22 -10l187 -187q6 -6 7 -10q3 -6 3 -12v0z" />
    <glyph glyph-name="arrow-left-up-alt" unicode="&#xe89b;" 
d="M200 650q-90 -90 -122 -213q-31 -118 0 -237q32 -123 122 -213t213 -122q119 -31 237 0q123 32 213 122t122 213q31 119 0 237q-32 123 -122 213t-213 122q-118 31 -237 0q-123 -32 -213 -122zM764 86q-10 -9 -22.5 -9t-22.5 9l-344 345v-190q0 -13 -9 -22t-22 -9t-22 9
t-9 22v265q0 8 1.5 11.5t4.5 8.5l2 2h1v1l2 2q5 3 8 4q6 3 12 3h265q13 0 22 -9.5t9 -22.5t-9 -22t-22 -9h-190l345 -344q9 -10 9 -22.5t-9 -22.5z" />
    <glyph glyph-name="arrow-right-up-alt" unicode="&#xe89c;" 
d="M200 650q-90 -90 -122 -213q-31 -118 0 -237q32 -123 122 -213t213 -122q119 -31 237 0q123 32 213 122t122 213q31 119 0 237q-32 123 -122 213t-213 122q-118 31 -237 0q-123 -32 -213 -122zM750 506v-265q0 -13 -9 -22t-22 -9t-22 9t-9 22v190l-345 -345q-9 -9 -22 -9
t-22 9.5t-9 22t9 22.5l344 344h-189q-13 0 -22.5 9t-9.5 22.5t9.5 22.5t22.5 9h265q6 0 12 -3q11 -5 17 -17q2 -8 2 -12v0z" />
    <glyph glyph-name="arrow-right-down-alt" unicode="&#xe89d;" 
d="M200 650q-90 -90 -122 -213q-31 -118 0 -237q32 -123 122 -213t213 -122q119 -31 237 0q123 32 213 122t122 213q31 119 0 237q-32 123 -122 213t-213 122q-118 31 -237 0q-123 -32 -213 -122zM750 131v0q0 -4 -2 -12q-6 -11 -17 -17q-8 -2 -12 -2h-265q-13 0 -22.5 9
t-9.5 22.5t9.5 22.5t22.5 9h189l-344 344q-9 9 -9 22t9 22t22 9t22 -9l345 -344v189q0 13 9 22.5t22 9.5t22 -9.5t9 -22.5v-265z" />
    <glyph glyph-name="arrow-left-down-alt" unicode="&#xe89e;" 
d="M200 650q-90 -90 -122 -213q-31 -118 0 -237q32 -123 122 -213t213 -122q119 -31 237 0q123 32 213 122t122 213q31 119 0 237q-32 123 -122 213t-213 122q-118 31 -237 0q-123 -32 -213 -122zM764 507l-345 -344h190q13 0 22 -9.5t9 -22.5t-9 -22t-22 -9h-265
q-4 0 -12 2q-6 3 -10 7v0l-1 1q-4 5 -6 9t-2 12v0v265q0 13 9 22.5t22 9.5t22 -9.5t9 -22.5v-189l344 344q10 9 22.5 9t22.5 -9t9.5 -22t-9.5 -22z" />
    <glyph glyph-name="arrow-condense-alt" unicode="&#xe89f;" 
d="M938 850h-875q-26 0 -44.5 -18t-18.5 -44v-876q0 -26 18.5 -44t44.5 -18h875q26 0 44 18.5t18 43.5v876q0 26 -18 44t-44 18zM438 256v-250q0 -13 -9.5 -22t-22.5 -9t-22 9t-9 22v175l-197 -197q-9 -9 -22 -9t-22 9t-9 22t9 22l197 197h-175q-13 0 -22 9t-9 22t9 22.5
t22 9.5h250q6 0 12 -3q12 -5 17 -17q3 -6 3 -12v0zM844 475q13 0 22 -9t9 -22t-9 -22t-22 -9h-250q-8 0 -12 1.5t-10 7.5v0h-1l-2 2q-3 5 -4.5 8.5t-1.5 11.5v0v250q0 13 9 22t22 9t22 -9t9 -22v-175l197 197q9 9 22 9t22 -9t9 -22t-9 -22l-197 -197h175z" />
    <glyph glyph-name="arrow-expand-alt3" unicode="&#xe8a0;" 
d="M938 850h-875q-26 0 -44.5 -18t-18.5 -44v-876q0 -26 18.5 -44t44.5 -18h875q26 0 44 18.5t18 43.5v876q0 26 -18 44t-44 18zM406 38q14 0 23 -9t9 -22.5t-9.5 -22.5t-22.5 -9h-250q-4 0 -12 2l-3 2q-5 3 -7 5v1q-2 2 -6 7l-1 2q-2 8 -2 12v0v250q0 13 9 22.5t22 9.5
t22.5 -9.5t9.5 -22.5v-174l196 196q9 10 22 10t22.5 -9.5t9.5 -22.5t-10 -22l-196 -196h174zM875 694v-250q0 -13 -9 -22t-22 -9t-22 9t-9 22v174l-197 -196q-9 -10 -22 -10t-22 9.5t-9 22.5t9 22l196 197h-174q-13 0 -22 9t-9 22t9 22t22 9h250q4 0 12 -2q11 -6 17 -17
q2 -8 2 -12v0z" />
    <glyph glyph-name="arrow-caret-up-alt" unicode="&#xe8a1;" 
d="M531 -150q127 0 237 64q106 62 168 168q64 110 64 237t-64 237q-62 106 -168 168q-110 64 -237 64t-236 -64q-106 -62 -168 -168q-64 -110 -64 -237t64 -237q62 -106 168 -168q109 -64 236 -64zM306 263l203 203q9 9 22 9t22 -9l203 -203q9 -9 9 -22t-9 -22t-22 -9t-22 9
l-181 180l-180 -180q-10 -9 -22.5 -9t-22 9t-9.5 22t9 22z" />
    <glyph glyph-name="arrow-caret-down-alt" unicode="&#xe8a2;" 
d="M531 788q-127 0 -236 -64q-106 -62 -168 -168q-64 -110 -64 -237t64 -237q62 -106 168 -168q109 -64 236 -64t237 64q106 62 168 168q64 110 64 237t-64 237q-62 106 -168 168q-110 64 -237 64zM756 375l-203 -203q-9 -9 -22 -9t-22 9l-203 203q-9 9 -9 22t9.5 22t22 9
t22.5 -9l180 -181l181 181q9 9 22 9t22 -9t9 -22t-9 -22z" />
    <glyph glyph-name="arrow-caret-left-alt" unicode="&#xe8a3;" 
d="M531 788q-127 0 -236 -64q-106 -62 -168 -168q-64 -110 -64 -237t64 -237q62 -106 168 -168q109 -64 236 -64t237 64q106 62 168 168q64 110 64 237t-64 237q-62 106 -168 168q-110 64 -237 64zM631 138q9 -9 9 -22t-9 -22t-22 -9t-22 9l-203 203q-9 9 -9 22t9 22
l203 203q9 9 22 9t22 -9.5t9 -22t-9 -22.5l-180 -180z" />
    <glyph glyph-name="arrow-caret-right-alt" unicode="&#xe8a4;" 
d="M531 788q-127 0 -236 -64q-106 -62 -168 -168q-64 -110 -64 -237t64 -237q62 -106 168 -168q109 -64 236 -64t237 64q106 62 168 168q64 110 64 237t-64 237q-62 106 -168 168q-110 64 -237 64zM678 297l-203 -203q-9 -9 -22 -9t-22 9t-9 22t9 22l181 181l-181 180
q-9 10 -9 22.5t9 22t22 9.5t22 -9l203 -203q9 -9 9 -22t-9 -22z" />
    <glyph glyph-name="arrow-caret-2up-alt" unicode="&#xe8a5;" 
d="M531 788q-127 0 -236 -64q-106 -62 -168 -168q-64 -110 -64 -237t64 -237q62 -106 168 -168q109 -64 236 -64t237 64q106 62 168 168q64 110 64 237t-64 237q-62 106 -168 168q-110 64 -237 64zM764 106q-9 -9 -22 -9t-22 9l-188 166l-187 -166q-9 -9 -22 -9t-22 9t-9 22
t9 22l209 185q9 10 22.5 10t22.5 -10l209 -184q9 -10 9 -23t-9 -22zM764 330q-9 -9 -22 -9t-22 9l-188 166l-187 -166q-9 -9 -22 -9t-22.5 9t-9.5 22t10 23l209 185q9 9 22.5 9t22.5 -9l209 -185q9 -10 9 -23t-9 -22z" />
    <glyph glyph-name="arrow-caret-2down-alt" unicode="&#xe8a6;" 
d="M533 783q-126 0 -235 -64q-105 -62 -167 -167q-64 -109 -64 -235t64 -235q62 -106 167 -168q109 -64 235 -64t235 64q106 62 168 167q64 109 64 236t-64 235q-62 106 -167 168q-109 63 -236 63zM762 263l-209 -185q-9 -9 -22 -9t-24 9l-209 185q-9 9 -9 22t9.5 22.5
t22.5 9.5t22 -10l187 -165l187 165q10 10 23 10t22 -10t9 -22.5t-9 -21.5zM762 487l-209 -185q-9 -9 -22 -9t-24 9l-209 185q-9 9 -9 22t9.5 22.5t22.5 9.5t22 -9l187 -166l187 166q10 9 23 9t22 -9t9 -22.5t-9 -22.5z" />
    <glyph glyph-name="arrow-caret-2left-alt" unicode="&#xe8a7;" 
d="M534 783q-127 0 -236 -64q-105 -62 -167 -167q-64 -109 -64 -235.5t64 -235.5q62 -105 167 -167q109 -64 235.5 -64t235.5 64q105 62 167 167q64 109 64 235.5t-64 235.5q-62 105 -167 167q-109 64 -235 64zM520 88q-9 -9 -22 -9t-23 9l-185 209q-9 11 -9 23.5t9 22.5
l185 209q10 9 23 9t22 -9t9 -22.5t-9 -22.5l-166 -187l166 -187q9 -10 9 -23t-9 -22zM744 133q9 -10 9 -23t-9 -22t-22 -9t-22 9l-185 209q-10 10 -10 23t10 23l185 209q9 9 22 9t22 -9t9 -22.5t-9 -22.5l-166 -187z" />
    <glyph glyph-name="arrow-caret-2right-alt" unicode="&#xe8a8;" 
d="M534 783q-127 0 -236 -64q-105 -62 -167 -167q-64 -109 -64 -235t64 -235q62 -106 167 -168q109 -64 236 -64t235 64q106 62 168 167q63 109 63 236t-64 235q-61 106 -167 168q-109 63 -235 63zM319 86q-10 9 -10 22t10 22l165 188l-165 187q-10 9 -10 22t10 22t22.5 9.5
t21.5 -9.5l185 -209q9 -9 9 -22.5t-9 -22.5l-185 -209q-9 -9 -22 -9t-22 9zM772 295l-185 -209q-9 -9 -22 -9t-22 9t-9.5 22t9.5 22l165 188l-165 187q-10 9 -10 22t10 22t22.5 9.5t21.5 -9.5l185 -209q9 -9 9 -22.5t-9 -22.5z" />
    <glyph glyph-name="triangle-up-alt" unicode="&#xe8a9;" 
d="M531 788q-127 0 -236 -64q-106 -62 -168 -168q-64 -110 -64 -237t64 -237q62 -106 168 -168q109 -64 236 -64t237 64q106 62 168 168q64 110 64 237t-64 237q-62 106 -168 168q-110 64 -237 64zM741 236v0q-8 -11 -19 -11h-382q-12 0 -20 11v0q-8 10 -8 24.5t8 24.5
l191 242h1q8 11 19 11t19 -11l191 -242q8 -10 8 -24.5t-8 -24.5z" />
    <glyph glyph-name="triangle-down-alt" unicode="&#xe8aa;" 
d="M531 788q-127 0 -236 -64q-106 -62 -168 -168q-64 -110 -64 -237t64 -237q62 -106 168 -168q109 -64 236 -64t237 64q106 62 168 168q64 110 64 237t-64 237q-62 106 -168 168q-110 64 -237 64zM741 353l-191 -242v-1q-8 -10 -19.5 -10t-19.5 10l-191 243q-8 10 -8 24.5
t8 24.5v0q9 11 20 11h382q10 0 19 -11v0q8 -10 8 -24.5t-8 -24.5z" />
    <glyph glyph-name="triangle-left-alt" unicode="&#xe8ab;" 
d="M531 788q-127 0 -236 -64q-106 -62 -168 -168q-64 -110 -64 -237t64 -237q62 -106 168 -168q109 -64 236 -64t237 64q106 62 168 168q64 110 64 237t-64 237q-62 106 -168 168q-110 64 -237 64zM625 128q0 -11 -11 -19v0q-10 -8 -24 -8t-25 8l-241 191h-1q-10 8 -10 19.5
t10 19.5l242 191q11 8 25 8t24 -8v0q11 -8 11 -20v-382z" />
    <glyph glyph-name="triangle-right-alt" unicode="&#xe8ac;" 
d="M531 788q-127 0 -236 -64q-106 -62 -168 -168q-64 -110 -64 -237t64 -237q62 -106 168 -168q109 -64 236 -64t237 64q106 62 168 168q64 110 64 237t-64 237q-62 106 -168 168q-110 64 -237 64zM740 300l-242 -191q-10 -8 -24.5 -8t-25.5 8h1q-11 8 -11 19v382
q0 12 10 20v0q11 8 25.5 8t24.5 -8l241 -191h1q10 -8 10 -19.5t-10 -19.5z" />
    <glyph glyph-name="minus-alt" unicode="&#xe8ad;" 
d="M531 788q-127 0 -236 -64q-106 -62 -168 -168q-64 -110 -64 -237t64 -237q62 -106 168 -168q109 -64 236 -64t237 64q106 62 168 168q64 110 64 237t-64 237q-62 106 -168 168q-110 64 -237 64zM781 288h-500q-13 0 -22 9t-9 22t9 22t22 9h500q13 0 22.5 -9t9.5 -22
t-9.5 -22t-22.5 -9z" />
    <glyph glyph-name="plus-alt" unicode="&#xe8ae;" 
d="M531 788q-127 0 -236 -64q-106 -62 -168 -168q-64 -110 -64 -237t64 -237q62 -106 168 -168q109 -64 236 -64t237 64q106 62 168 168q64 110 64 237t-64 237q-62 106 -168 168q-110 64 -237 64zM781 288h-218v-219q0 -13 -9.5 -22t-22.5 -9t-22 9t-9 22v219h-219
q-13 0 -22 9t-9 22t9 22t22 9h219v219q0 13 9 22t22 9t22.5 -9t9.5 -22v-219h218q13 0 22.5 -9t9.5 -22t-9.5 -22t-22.5 -9z" />
    <glyph glyph-name="close-alt" unicode="&#xe8af;" 
d="M531 788q-127 0 -236 -64q-106 -62 -168 -168q-64 -110 -64 -237t64 -237q62 -106 168 -168q109 -64 236 -64t237 64q106 62 168 168q64 110 64 237t-64 237q-62 106 -168 168q-110 64 -237 64zM748 492l-174 -174l154 -172q10 -9 10 -22t-10 -22t-22.5 -9.5t-21.5 9.5
l-154 171l-172 -171q-9 -10 -22 -10t-22 9.5t-9 22.5t9 22l174 174l-154 172q-9 9 -9 22t9 22t22 9t22 -9l154 -172l172 172q9 9 22 9t22.5 -9t9.5 -22t-10 -22z" />
    <glyph glyph-name="check-alt" unicode="&#xe8b0;" 
d="M503 850q-136 0 -252 -68q-113 -67 -180 -180q-68 -116 -68 -252t68 -252q67 -113 180 -180q116 -68 252 -68t252 68q113 67 180 180q68 116 68 252t-68 252q-67 113 -180 180q-116 68 -252 68zM734 488l-239 -366v0l-4 -6l-9 -6q-6 -5 -13 -6q-2 0 -4 -1h-10l-8 1l-9 4
q-3 1 -4 2l-3 3l-2 1l-139 129q-13 12 -14 30t11 32t30.5 14.5t31.5 -12.5l101 -93l211 322q10 15 27.5 19t33 -6t19 -27.5t-6.5 -33.5z" />
    <glyph glyph-name="zoom-out" unicode="&#xe8b1;" 
d="M594 850q-111 0 -205 -55q-92 -54 -146 -146q-55 -95 -55 -205q0 -72 23.5 -137t66.5 -118l-265 -265q-13 -13 -13 -30.5t13 -30.5t30.5 -13t30.5 13l265 265q53 -43 118 -66.5t137 -23.5q110 0 205 55q92 54 146 146q55 94 55 205t-55 205q-54 92 -146 146
q-95 55 -205 55zM781 413h-375q-13 0 -22 9t-9 22t9 22t22 9h375q13 0 22.5 -9t9.5 -22t-9.5 -22t-22.5 -9z" />
    <glyph glyph-name="zoom-in" unicode="&#xe8b2;" 
d="M594 850q-111 0 -205 -55q-92 -54 -146 -146q-55 -95 -55 -205q0 -72 23.5 -137t66.5 -118l-265 -265q-13 -13 -13 -30.5t13 -30.5t30.5 -13t30.5 13l265 265q53 -43 118 -66.5t137 -23.5q110 0 205 55q92 54 146 146q55 94 55 205t-55 205q-54 92 -146 146
q-95 55 -205 55zM781 413h-156v-157q0 -13 -9 -22t-22 -9t-22 9t-9 22v157h-157q-13 0 -22 9t-9 22t9 22t22 9h157v156q0 13 9 22.5t22 9.5t22 -9.5t9 -22.5v-156h156q13 0 22.5 -9t9.5 -22t-9.5 -22t-22.5 -9z" />
    <glyph glyph-name="stop-alt" unicode="&#xe8b3;" 
d="M500 850q-136 0 -252 -68q-113 -67 -180 -180q-68 -116 -68 -252t68 -252q67 -113 180 -180q116 -68 252 -68t252 68q113 67 180 180q68 116 68 252t-68 252q-67 113 -180 180q-116 68 -252 68zM688 225q0 -26 -18.5 -44t-44.5 -18h-250q-25 0 -43.5 18.5t-18.5 43.5v250
q0 26 18 44.5t44 18.5h250q26 0 44.5 -18.5t18.5 -44.5v-250z" />
    <glyph glyph-name="menu-square-alt" unicode="&#xe8b4;" 
d="M938 788h-813q-26 0 -44 -18.5t-18 -44.5v-813q0 -25 18.5 -43.5t43.5 -18.5h813q26 0 44 18.5t18 43.5v813q0 26 -18 44.5t-44 18.5zM781 100h-500q-13 0 -22 9t-9 22t9 22.5t22 9.5h500q14 0 23 -9t9 -22.5t-9.5 -22.5t-22.5 -9zM781 288h-500q-13 0 -22 9t-9 22t9 22
t22 9h500q13 0 22.5 -9t9.5 -22t-9.5 -22t-22.5 -9zM781 475h-500q-13 0 -22 9t-9 22t9 22.5t22 9.5h500q14 0 23 -9t9 -22.5t-9.5 -22.5t-22.5 -9z" />
    <glyph glyph-name="menu-circle-alt" unicode="&#xe8b5;" 
d="M531 788q-127 0 -236 -64q-106 -62 -168 -168q-64 -110 -64 -237t64 -237q62 -106 168 -168q109 -64 236 -64t237 64q106 62 168 168q64 110 64 237t-64 237q-62 106 -168 168q-110 64 -237 64zM781 100h-500q-13 0 -22 9t-9 22t9 22.5t22 9.5h500q14 0 23 -9t9 -22.5
t-9.5 -22.5t-22.5 -9zM781 288h-500q-13 0 -22 9t-9 22t9 22t22 9h500q13 0 22.5 -9t9.5 -22t-9.5 -22t-22.5 -9zM781 475h-500q-13 0 -22 9t-9 22t9 22.5t22 9.5h500q14 0 23 -9t9 -22.5t-9.5 -22.5t-22.5 -9z" />
    <glyph glyph-name="doc" unicode="&#xe8b6;" 
d="M125 -150h753q26 0 44 18.5t18 43.5v876q0 26 -18 44t-44 18h-753q-25 0 -43.5 -18t-18.5 -44v-876q0 -25 18.5 -43.5t43.5 -18.5zM469 663h252q14 0 23 -9t9 -22.5t-9.5 -22.5t-22.5 -9h-252q-13 0 -22 9t-9 22t9 22.5t22 9.5zM281 475h440q13 0 22.5 -9t9.5 -22
t-9.5 -22t-22.5 -9h-440q-13 0 -22 9t-9 22t9 22t22 9zM281 288h440q14 0 23 -9t9 -22.5t-9.5 -22.5t-22.5 -9h-440q-13 0 -22 9t-9 22t9 22.5t22 9.5zM281 100h440q13 0 22.5 -9t9.5 -22t-9.5 -22t-22.5 -9h-440q-13 0 -22 9t-9 22t9 22t22 9z" />
    <glyph glyph-name="docs" unicode="&#xe8b7;" 
d="M125 -25h63v-63q0 -25 18.5 -43.5t43.5 -18.5h625q26 0 44.5 18t18.5 44v751q0 26 -18.5 44t-44.5 18h-62v63q0 26 -18.5 44t-44.5 18h-625q-25 0 -43.5 -18t-18.5 -44v-750q0 -26 18 -44.5t44 -18.5zM875 663v-751h-625v63h500q26 0 44.5 18.5t18.5 44.5v625h62z
M656 725q13 0 22.5 -9t9.5 -22t-9.5 -22t-22.5 -9h-252q-13 0 -22.5 9t-9.5 22t9.5 22t22.5 9h252zM216 538h440q14 0 23 -9t9 -22.5t-9.5 -22.5t-22.5 -9h-440q-13 0 -22 9t-9 22t9 22.5t22 9.5zM216 350h440q13 0 22.5 -9t9.5 -22t-9.5 -22t-22.5 -9h-440q-13 0 -22 9
t-9 22t9 22t22 9zM216 163h440q14 0 23 -9t9 -22.5t-9.5 -22.5t-22.5 -9h-440q-13 0 -22 9t-9 22t9 22.5t22 9.5z" />
    <glyph glyph-name="pencil-alt" unicode="&#xe8b8;" 
d="M938 850h-875q-26 0 -44.5 -18t-18.5 -44v-876q0 -26 18.5 -44t44.5 -18h875q26 0 44 18.5t18 43.5v876q0 26 -18 44t-44 18zM174 563q-23 23 -23 56.5t23 56.5t56.5 23t56.5 -23l82 -83l-112 -112zM644 93l-321 321l113 113l321 -321l56 -168z" />
    <glyph glyph-name="folder" unicode="&#xe8b9;" 
d="M938 663h-313q-26 0 -44 -18.5t-18 -44.5l-2 -9q-4 -11 -9 -20q-8 -13 -19 -21q-14 -10 -33 -12h-437q-26 0 -44.5 -18t-18.5 -44v-564q0 -26 18.5 -44t44.5 -18h875q26 0 44 18.5t18 43.5v688q0 26 -18 44.5t-44 18.5z" />
    <glyph glyph-name="folder-open" unicode="&#xe8ba;" 
d="M938 725h-313q-25 0 -43.5 -18t-18.5 -44l-2 -9q-4 -11 -9 -21q-8 -13 -19 -21q-14 -10 -33 -12h-437q-26 0 -44.5 -18t-18.5 -43v-64h1000v188q0 26 -18 44t-44 18zM0 -88q0 -26 18.5 -44t44.5 -18h875q26 0 44 18.5t18 43.5v501h-1000v-501z" />
    <glyph glyph-name="folder-add" unicode="&#xe8bb;" 
d="M938 663h-250q-26 0 -44.5 -18.5t-18.5 -44.5l-2 -9q-3 -11 -9 -20q-7 -13 -19 -21q-13 -10 -32 -12h-438q-26 0 -44 -18.5t-18 -44.5v-563q0 -25 18.5 -43.5t43.5 -18.5h813q26 0 44 18.5t18 43.5v688q0 26 -18 44.5t-44 18.5zM719 163h-156v-157q0 -13 -9.5 -22
t-22.5 -9t-22 9t-9 22v157h-156q-13 0 -22 9t-9 22t9 22t22 9h156v156q0 13 9 22.5t22 9.5t22.5 -9.5t9.5 -22.5v-156h156q13 0 22 -9t9 -22t-9 -22t-22 -9z" />
    <glyph glyph-name="folder-upload" unicode="&#xe8bc;" 
d="M938 725h-313q-25 0 -43.5 -18t-18.5 -44l-2 -9q-4 -11 -9 -21q-8 -13 -19 -21q-14 -10 -33 -12h-437q-26 0 -44.5 -18t-18.5 -43v-564q0 -26 18.5 -44.5t44.5 -18.5h375v313h-133l195 250l195 -250h-132v-313h375q26 0 44 18.5t18 44.5v688q0 26 -18 44t-44 18z" />
    <glyph glyph-name="folder-download" unicode="&#xe8bd;" 
d="M938 725h-313q-25 0 -43.5 -18t-18.5 -44l-2 -9q-4 -11 -9 -21q-8 -13 -19 -21q-14 -10 -33 -12h-437q-26 0 -44.5 -18t-18.5 -43v-564q0 -26 18.5 -44.5t44.5 -18.5h875q26 0 44 18.5t18 44.5v688q0 26 -18 44t-44 18zM500 -87l-195 250h133v250q0 26 18.5 44t44 18
t44 -18.5t18.5 -43.5v-250h132z" />
    <glyph glyph-name="info" unicode="&#xe8be;" 
d="M500 850q-136 0 -252 -68q-113 -67 -180 -180q-68 -116 -68 -252t68 -252q67 -113 180 -180q116 -68 252 -68t252 68q113 67 180 180q68 116 68 252t-68 252q-67 113 -180 180q-116 68 -252 68zM438 413q0 26 18.5 44t44 18t44 -18.5t18.5 -43.5v-313q0 -26 -18.5 -44
t-44.5 -18t-44 18t-18 44v313zM500 537q-25 0 -43.5 18.5t-18.5 44t18 44t44 18.5t44.5 -18.5t18.5 -44.5t-18.5 -44t-44.5 -18z" />
    <glyph glyph-name="attention-circle" unicode="&#xe8bf;" 
d="M500 -150q136 0 252 68q113 67 180 180q68 116 68 252t-68 252q-67 113 -180 180q-116 68 -252 68t-252 -68q-113 -67 -180 -180q-68 -116 -68 -252t68 -252q67 -113 180 -180q116 -68 252 -68zM563 288q0 -26 -18.5 -44.5t-44.5 -18.5t-44 18.5t-18 44.5v312
q0 26 18 44.5t44 18.5t44.5 -18.5t18.5 -44.5v-312zM500 164q26 0 44.5 -18.5t18.5 -44.5t-18.5 -44t-44.5 -18t-44 18t-18 44t18 44.5t44 18.5z" />
    <glyph glyph-name="attention-oct" unicode="&#xe8c0;" 
d="M725 832q-18 18 -44 18h-362q-26 0 -44 -18l-257 -257q-18 -18 -18 -44v-362q0 -26 18 -44l257 -257q18 -18 44 -18h362q26 0 44 18l257 257q18 18 18 44v362q0 26 -18 44zM500 225q-26 0 -44 18.5t-18 44.5v375q0 26 18.5 44t44 18t44 -18.5t18.5 -43.5v-375
q0 -26 -18.5 -44.5t-44.5 -18.5zM563 38q0 -26 -18.5 -44.5t-44.5 -18.5t-44 18.5t-18 44.5t18.5 44t44 18t44 -18.5t18.5 -43.5z" />
    <glyph glyph-name="attention" unicode="&#xe8c1;" 
d="M64 -150h870q17 0 31 8t22.5 22t9 30.5t-7.5 31.5l-434 812q-8 16 -23 25t-32 9v0q-17 0 -32 -9t-23 -24l-436 -813q-7 -14 -6.5 -31t8.5 -31t22.5 -22t30.5 -8zM500 100q26 0 44.5 -18t18.5 -44t-18.5 -44.5t-44.5 -18.5t-44 18.5t-18 44.5t18.5 44t43.5 18zM438 224
v250q0 26 18 44.5t44 18.5t44.5 -18.5t18.5 -44.5v-250q0 -26 -18.5 -44t-44.5 -18t-44 18t-18 44z" />
    <glyph glyph-name="question-alt" unicode="&#xe8c2;" 
d="M500 -150q136 0 252 68q113 67 180 180q68 116 68 252t-68 252q-67 113 -180 180q-116 68 -252 68t-252 -68q-113 -67 -180 -180q-68 -116 -68 -252t68 -252q67 -113 180 -180q116 -68 252 -68zM500 725q65 0 120 -24q59 -27 93 -76q37 -54 37 -130q0 -70 -34.5 -124
t-101.5 -91q-20 -11 -35.5 -28.5t-15.5 -26.5q0 -26 -18.5 -44t-44.5 -18t-44 18t-18 44q0 53 41 103q32 39 74.5 62t59.5 53q12 22 12 52q0 60 -45 87q-31 18 -80 18q-32 0 -59 -13q-30 -15 -47 -42q-19 -30 -19 -71q0 -26 -18 -44.5t-44 -18.5t-44.5 18.5t-18.5 44.5
q0 78 38 138q34 54 93 84q56 29 119 29zM500 -28q-27 0 -45.5 19t-18.5 46t18.5 45.5t45.5 18.5t45.5 -19t18.5 -45.5t-18.5 -45.5t-45.5 -19z" />
    <glyph glyph-name="comment" unicode="&#xe8c3;" 
d="M159 85q-38 -94 -102 -173q205 0 327 74q58 -11 116 -11q136 0 252 55q113 54 180 146q68 95 68 205t-68 205q-67 92 -180 146q-116 56 -252 56t-252 -56q-113 -53 -180 -145q-68 -95 -68 -206q0 -86 43 -164q41 -75 116 -132z" />
    <glyph glyph-name="chat" unicode="&#xe8c4;" 
d="M872 482q9 -37 9 -77q0 -99 -53 -187q-51 -85 -141.5 -143t-202.5 -76q76 -30 158 -30q79 0 150 27q73 -25 174 -25q-35 42 -60 93q44 39 69 89.5t25 105.5q0 66 -35 125q-33 56 -93 98zM787 405q0 87 -54 162q-52 72 -141 114q-91 44 -198 44t-199 -44
q-89 -42 -141 -114q-54 -75 -54 -162q0 -68 34 -129q32 -60 91 -104q-27 -71 -80 -136q162 0 257 58q54 -9 92 -9q107 0 198 44q89 43 141 115q54 74 54 161z" />
    <glyph glyph-name="vol-mute" unicode="&#xe8c5;" 
d="M63 92h143q7 -7 140 -120l132 -111q22 -13 39 -11.5t29.5 14t16.5 28.5v916q-4 16 -16.5 28.5t-29.5 14t-39 -11.5l-132 -115q-133 -117 -140 -124h-143q-26 0 -44.5 -18t-18.5 -44v-383q0 -26 18.5 -44.5t44.5 -18.5zM989 512q-11 11 -27 11t-27 -11l-108 -108l-108 108
q-11 11 -27 11t-27 -11t-11 -27t11 -27l108 -108l-108 -108q-11 -11 -11 -27t11 -27t27 -11t27 11l108 108l108 -108q11 -11 27 -11t27 11t11 27t-11 27l-108 108l108 108q11 11 11 27t-11 27z" />
    <glyph glyph-name="vol-low" unicode="&#xe8c6;" 
d="M643 850q-18 2 -40 -11l-132 -115q-133 -117 -140 -124h-143q-26 0 -44.5 -18t-18.5 -44v-383q0 -26 18.5 -44.5t44.5 -18.5h143q7 -7 140 -120l132 -111q22 -13 39 -11.5t29.5 14t16.5 28.5v916q-4 16 -16.5 28.5t-28.5 13.5zM784 241q-12 -6 -16 -18.5t2 -23.5
q4 -8 11.5 -12.5t16.5 -4.5q7 0 14 3q47 24 74.5 68.5t27.5 96.5t-27.5 96.5t-74.5 68.5q-12 6 -24 2t-18 -15.5t-2 -24t16 -18.5q31 -16 49.5 -45t18.5 -64t-18.5 -64t-49.5 -45z" />
    <glyph glyph-name="vol-high" unicode="&#xe8c7;" 
d="M63 92h143q7 -7 140 -120l132 -111q22 -13 39 -11.5t29.5 14t16.5 28.5v916q-4 16 -16.5 28.5t-29.5 14t-39 -11.5l-132 -115q-133 -117 -140 -124h-143q-26 0 -44.5 -18t-18.5 -44v-383q0 -26 18.5 -44.5t44.5 -18.5zM659 241q-12 -6 -16 -18.5t2 -23.5q4 -8 11.5 -12.5
t16.5 -4.5q7 0 14 3q47 24 74.5 68.5t27.5 96.5t-27.5 96.5t-74.5 68.5q-12 6 -24 2t-18 -15.5t-2 -24t16 -18.5q31 -16 49.5 -45t18.5 -64t-18.5 -64t-49.5 -45zM616 -9q2 -11 10.5 -18t19.5 -7q4 0 7 1q90 17 163 74q71 54 112 135.5t41 173.5t-41 173.5t-112 135.5
q-73 57 -164 74q-12 3 -23 -4t-13 -20t5 -24t20 -13q76 -15 136.5 -61.5t94.5 -114.5t34 -146t-34 -146t-94.5 -114.5t-136.5 -61.5q-13 -2 -20 -13t-5 -24z" />
    <glyph glyph-name="quotes-alt" unicode="&#xe8c8;" 
d="M500 850q-136 0 -252 -68q-113 -67 -180 -180q-68 -116 -68 -252t68 -252q67 -113 180 -180q116 -68 252 -68t252 68q113 67 180 180q68 116 68 252t-68 252q-67 113 -180 180q-116 68 -252 68zM751 359q-4 -59 -32 -116q-38 -74 -117 -137q-7 -7 -18 -7q-15 0 -23.5 11
t-7 24t11.5 21q64 52 96 110q24 45 29 92q-23 -13 -45 -13q-38 0 -65 28t-27 68t27 68t65 28q15 0 32 -7l3 -1q3 -1 7 -4h2l3 -2q7 -5 10.5 -8t7.5 -7q48 -48 41 -148zM342 344q-38 0 -65 28t-27 68t27 68t65 28q15 0 32 -7l3 -1q3 -1 7 -4h2l3 -2q7 -5 10.5 -8t7.5 -7
q48 -48 41 -148q-4 -59 -32 -116q-38 -74 -117 -137q-7 -7 -18 -7q-15 0 -23.5 11t-7 24t11.5 21q64 52 96 110q24 45 29 92q-23 -13 -45 -13z" />
    <glyph glyph-name="clock" unicode="&#xe8c9;" 
d="M203 647q-90 -90 -121 -212q-31 -118 0 -237q31 -121 121 -211t212 -122q118 -31 236 0q123 32 212.5 122t121.5 211q31 119 0 237q-32 122 -122 212t-211 121q-119 31 -237 0q-122 -31 -212 -121zM781 288h-248l-2 -1q-13 0 -22 9.5t-9 22.5v312q0 13 9 22.5t22 9.5
t22.5 -9.5t9.5 -22.5v-281h218q13 0 22.5 -9t9.5 -22t-9.5 -22t-22.5 -9z" />
    <glyph glyph-name="lock" unicode="&#xe8ca;" 
d="M500 850q-86 0 -160 -43q-72 -42 -114 -114q-43 -74 -43 -160v-58h-58q-25 0 -43.5 -18t-18.5 -44v-501q0 -25 18.5 -43.5t43.5 -18.5h750q26 0 44.5 18t18.5 44v501q0 26 -18.5 44t-44.5 18h-58v58q0 86 -43 160q-42 72 -114 114q-74 43 -160 43zM308 533q0 52 26 96
t70 70t96 26t96 -26t70 -70t26 -96v-58h-384v58zM500 38q-34 0 -62.5 16.5t-45.5 45.5t-17 63t17 62.5t45.5 45.5t62.5 17t62.5 -17t45.5 -45.5t17 -62.5t-17 -63t-45.5 -45.5t-62.5 -16.5z" />
    <glyph glyph-name="lock-open" unicode="&#xe8cb;" 
d="M813 475h-568v58q0 52 26 96t70 70t96 26t95.5 -25.5t69.5 -68.5q0 1 1 1v0q9 -12 22 -19.5t28 -7.5q26 0 44.5 18t18.5 44q0 12 -5 24q0 1 -1 2q-2 8 -11 16q-44 65 -111 102q-70 39 -150 39q-87 0 -161 -43q-72 -42 -114 -114q-43 -74 -43 -160v-58h-57
q-26 0 -44.5 -18t-18.5 -44v-501q0 -26 18.5 -44t44.5 -18h750q26 0 44 18.5t18 43.5v501q0 26 -18 44t-44 18zM438 38q-34 0 -63 16.5t-45.5 45.5t-16.5 63t16.5 63t45.5 45.5t63 16.5t63 -17t45.5 -45.5t16.5 -62.5t-17 -62.5t-45.5 -45.5t-62.5 -17z" />
    </font>
</defs>
</svg>
